<svg width="594" height="583" viewBox="0 0 594 583" fill="none" xmlns="http://www.w3.org/2000/svg">
<path d="M296 335.95C381.716 335.95 449.395 356.491 495.456 383.459C518.498 396.95 536.011 411.977 547.7 426.722C559.443 441.535 565 455.654 565 467.45V545.525H27V467.45C27 458.312 32.6257 445.456 44.9844 430.846C57.1721 416.438 75.2987 401.061 98.752 386.957C145.629 358.767 213.311 335.95 296 335.95ZM296 28.5C327.836 28.5 358.368 41.1469 380.879 63.6582C403.39 86.1695 416.037 116.701 416.037 148.537C416.037 180.373 403.39 210.906 380.879 233.417C358.368 255.928 327.836 268.575 296 268.575C264.164 268.575 233.632 255.928 211.121 233.417C188.61 210.906 175.963 180.373 175.963 148.537C175.963 116.701 188.61 86.1695 211.121 63.6582C233.632 41.1469 264.164 28.5 296 28.5Z" stroke="#FFBB00" stroke-width="12"/>
<path d="M450.945 39.2417C456.952 37.0177 463.766 38.4444 468.377 43.0546C474.829 49.5061 474.829 59.9691 468.377 66.4209C461.924 72.8741 451.462 72.8741 445.009 66.4209C440.38 61.7913 438.962 54.9401 441.224 48.9167C441.795 47.3966 441.026 45.7016 439.505 45.1307C437.985 44.5598 436.29 45.3293 435.719 46.8494C432.654 55.0132 434.576 64.3029 440.851 70.5787C449.601 79.3282 463.785 79.3282 472.535 70.5787C481.283 61.8306 481.283 47.6447 472.535 38.8966C466.284 32.6476 457.046 30.7132 448.904 33.7275C447.381 34.2912 446.604 35.9826 447.167 37.5053C447.731 39.0279 449.423 39.8054 450.945 39.2417Z" fill="#FFBB00"/>
<path d="M447.171 38.9512L454.762 46.5408C455.384 47.163 455.384 48.1746 454.762 48.7965L450.753 52.8051C450.13 53.4283 449.121 53.4283 448.497 52.8051L440.947 45.2564C439.799 44.1084 437.938 44.1086 436.79 45.2569C435.642 46.4052 435.642 48.2666 436.79 49.4146L444.34 56.963C447.259 59.8824 451.992 59.8824 454.911 56.9629L458.92 52.9543C461.838 50.0364 461.838 45.3032 458.921 42.3838L451.329 34.793C450.18 33.645 448.319 33.6452 447.171 34.7935C446.023 35.9418 446.023 37.8032 447.171 38.9512ZM544.072 151.865C538.065 154.089 531.251 152.662 526.64 148.052C520.189 141.6 520.189 131.137 526.64 124.685C533.094 118.232 543.555 118.232 550.008 124.685C554.638 129.315 556.056 136.166 553.793 142.19C553.223 143.71 553.992 145.405 555.512 145.976C557.032 146.546 558.727 145.777 559.298 144.257C562.364 136.093 560.442 126.803 554.166 120.528C545.417 111.778 531.232 111.778 522.483 120.528C513.734 129.276 513.734 143.462 522.483 152.21C528.733 158.459 537.972 160.393 546.114 157.379C547.636 156.815 548.414 155.124 547.85 153.601C547.286 152.078 545.595 151.301 544.072 151.865H544.072Z" fill="#FFBB00"/>
<path d="M547.846 152.155L540.256 144.566C539.633 143.943 539.633 142.932 540.256 142.311L544.264 138.301C544.887 137.678 545.896 137.678 546.519 138.301L554.07 145.85C555.218 146.998 557.079 146.998 558.227 145.849C559.375 144.701 559.375 142.84 558.227 141.692L550.677 134.143C547.758 131.224 543.025 131.224 540.106 134.143L536.098 138.152C533.179 141.069 533.179 145.804 536.098 148.724L543.688 156.313C544.836 157.461 546.698 157.461 547.846 156.313C548.994 155.165 548.994 153.304 547.846 152.155L547.846 152.155ZM520.823 127.97L464.656 71.8029C463.507 70.6548 461.646 70.6548 460.498 71.8029C459.35 72.9511 459.35 74.8126 460.498 75.9607L516.665 132.128C517.813 133.276 519.675 133.276 520.823 132.128C521.971 130.98 521.971 129.118 520.823 127.97ZM473.349 62.0889L530.825 119.564C531.973 120.713 533.834 120.713 534.982 119.564C536.131 118.416 536.131 116.555 534.982 115.407L477.507 57.9311C476.359 56.7829 474.497 56.7829 473.349 57.9311C472.201 59.0792 472.201 60.9407 473.349 62.0889ZM510.087 78.2416L535.458 52.8709C536.606 51.7228 536.606 49.8613 535.458 48.7132C534.31 47.565 532.448 47.565 531.3 48.7132L505.929 74.0839C504.781 75.232 504.781 77.0935 505.929 78.2416C507.078 79.3898 508.939 79.3898 510.087 78.2416ZM540.864 56.7208L514.659 82.6722C513.505 83.8147 513.496 85.6762 514.638 86.8299C515.781 87.9837 517.643 87.9927 518.796 86.8502L545.002 60.8988C546.156 59.7563 546.165 57.8948 545.022 56.741C543.88 55.5873 542.018 55.5782 540.864 56.7208Z" fill="#FFBB00"/>
<path d="M559.762 40.8064C560.152 41.1964 560.425 41.6883 560.549 42.2259C560.672 42.7634 560.642 43.325 560.462 43.8463L556.414 55.5504C556.268 55.9712 556.029 56.3534 555.714 56.6682C555.399 56.983 555.017 57.2223 554.596 57.3678L542.891 61.4177C542.369 61.598 541.808 61.6281 541.27 61.5044C540.732 61.3806 540.24 61.1081 539.85 60.718L532.196 53.0622C531.806 52.6721 531.534 52.1802 531.41 51.6427C531.286 51.1052 531.316 50.5437 531.497 50.0224L535.545 38.3183C535.69 37.8975 535.93 37.5154 536.244 37.2006C536.559 36.8858 536.941 36.6466 537.362 36.501L549.066 32.4512C549.588 32.2708 550.149 32.2407 550.687 32.3644C551.224 32.4881 551.716 32.7606 552.106 33.1507L559.762 40.8065L559.762 40.8064ZM549.25 38.6097L540.635 41.5906L537.655 50.2059L542.707 55.2592L551.324 52.2781L554.304 43.6631L549.25 38.6097H549.25ZM488.79 116.785L453.969 151.607C452.892 152.683 451.6 152.822 451.136 152.358L440.435 141.658C439.972 141.195 440.111 139.903 441.188 138.825L475.941 104.073C477.089 102.925 477.089 101.064 475.941 99.9156C474.793 98.7674 472.932 98.7674 471.784 99.9154L437.03 134.668C433.832 137.868 433.297 142.833 436.276 145.814L446.979 156.517C449.962 159.497 454.928 158.962 458.126 155.764L492.948 120.943C494.096 119.795 494.096 117.933 492.948 116.785C491.8 115.637 489.938 115.637 488.79 116.785L488.79 116.785Z" fill="#FFBB00"/>
</svg>
