<!DOCTYPE svg PUBLIC "-//W3C//DTD SVG 1.1//EN" "http://www.w3.org/Graphics/SVG/1.1/DTD/svg11.dtd">
<!-- Uploaded to: SVG Repo, www.svgrepo.com, Transformed by: SVG Repo Mixer Tools -->
<svg fill="#FFBB00" height="256px" width="256px" version="1.1" id="Layer_1" xmlns="http://www.w3.org/2000/svg" xmlns:xlink="http://www.w3.org/1999/xlink" viewBox="0 0 512 512" xml:space="preserve">
<g id="SVGRepo_bgCarrier" stroke-width="0"/>
<g id="SVGRepo_tracerCarrier" stroke-linecap="round" stroke-linejoin="round"/>
<g id="SVGRepo_iconCarrier"> <g> <g> <path d="M207.455,112.708H48.285c-18.509,0-33.567,15.059-33.567,33.567v209.44H8.393c-4.635,0-8.393,3.758-8.393,8.393 c0,4.635,3.758,8.393,8.393,8.393h30.658c4.148,33.072,32.422,58.747,66.601,58.747c37.024,0,67.144-30.121,67.144-67.145 c0-37.023-30.121-67.144-67.144-67.144c-34.181,0-62.458,25.679-66.603,58.755h-7.547v-209.44c0-9.253,7.528-16.78,16.78-16.78 h159.171c4.635,0,8.393-3.758,8.393-8.393C215.848,116.466,212.09,112.708,207.455,112.708z M105.653,313.747 c27.768,0,50.357,22.591,50.357,50.357c0,27.767-22.591,50.358-50.357,50.358c-27.768,0-50.358-22.591-50.358-50.358 S77.886,313.747,105.653,313.747z"/> </g> </g> <g> <g> <path d="M401.646,329.476c-19.095,0-34.628,15.535-34.628,34.628s15.535,34.628,34.628,34.628 c19.093,0,34.628-15.535,34.628-34.628S420.741,329.476,401.646,329.476z M401.646,381.946c-9.838,0-17.841-8.004-17.841-17.841 s8.004-17.841,17.841-17.841c9.837,0,17.841,8.004,17.841,17.841S411.485,381.946,401.646,381.946z"/> </g> </g> <g> <g> <path d="M105.653,329.476c-19.095,0-34.628,15.535-34.628,34.628s15.535,34.628,34.628,34.628 c19.093,0,34.628-15.535,34.628-34.628S124.747,329.476,105.653,329.476z M105.653,381.946c-9.838,0-17.841-8.004-17.841-17.841 s8.004-17.841,17.841-17.841c9.837,0,17.841,8.004,17.841,17.841S115.49,381.946,105.653,381.946z"/> </g> </g> <g> <g> <path d="M503.607,355.715h-9.02V140.619c0-15.39-12.516-27.911-27.9-27.911h-16.798V89.144c0-4.635-3.758-8.393-8.393-8.393 h-42.343c-4.635,0-8.393,3.758-8.393,8.393v23.564H235.992c-4.635,0-8.393,3.758-8.393,8.393c0,4.635,3.758,8.393,8.393,8.393 h46.577v165.619c0,4.635,3.758,8.393,8.393,8.393c4.635,0,8.393-3.758,8.393-8.393V129.495h167.332 c6.128,0,11.113,4.99,11.113,11.124v7.133h-78.832c-4.635,0-8.393,3.758-8.393,8.393v36.015c0,4.635,3.758,8.393,8.393,8.393 s8.393-3.758,8.393-8.393v-27.621H477.8v60.083h-70.438v-5.036c0-4.635-3.758-8.393-8.393-8.393s-8.393,3.758-8.393,8.393v13.43 c0,4.635,3.758,8.393,8.393,8.393H477.8v114.307h-9.552c-4.144-33.076-32.421-58.755-66.603-58.755s-62.458,25.679-66.603,58.755 h-35.689v-32.065c0-4.635-3.758-8.393-8.393-8.393s-8.393,3.758-8.393,8.393v32.064h-93.018c-4.635,0-8.393,3.758-8.393,8.393 c0,4.635,3.758,8.393,8.393,8.393h145.495c4.147,33.072,32.422,58.747,66.601,58.747s62.453-25.675,66.601-58.747h35.36 c4.635,0,8.393-3.758,8.393-8.393C512,359.473,508.242,355.715,503.607,355.715z M433.102,112.708h-25.556V97.537h25.556V112.708z M401.646,414.463c-27.768,0-50.358-22.591-50.358-50.358s22.591-50.357,50.358-50.357c27.768,0,50.358,22.591,50.358,50.357 C452.005,391.871,429.414,414.463,401.646,414.463z"/> </g> </g> <g> <g> <path d="M369.88,147.751h-52.044c-4.635,0-8.393,3.758-8.393,8.393v76.869c0,4.635,3.758,8.393,8.393,8.393h52.044 c4.635,0,8.393-3.758,8.393-8.393v-76.869C378.273,151.509,374.515,147.751,369.88,147.751z M361.487,224.621H326.23v-60.083 h35.257V224.621z"/> </g> </g> <g> <g> <path d="M210.696,183.259h-24.766v-24.766c0-4.635-3.758-8.393-8.393-8.393h-47.371c-4.635,0-8.393,3.758-8.393,8.393v24.766 H97.005c-4.635,0-8.393,3.758-8.393,8.393v47.371c0,4.635,3.758,8.393,8.393,8.393h24.766v24.766c0,4.635,3.758,8.393,8.393,8.393 h47.371c4.635,0,8.393-3.758,8.393-8.393v-24.766h24.766c4.635,0,8.393-3.758,8.393-8.393v-47.371 C219.089,187.017,215.331,183.259,210.696,183.259z M202.302,230.631h-24.766c-4.635,0-8.393,3.757-8.393,8.393v24.766h-30.585 v-24.766c0-4.635-3.758-8.393-8.393-8.393h-24.766v-30.585h24.766c4.635,0,8.393-3.758,8.393-8.393v-24.766h30.585v24.766 c0,4.635,3.758,8.393,8.393,8.393h24.766V230.631z"/> </g> </g> <g> <g> <path d="M460.522,258.195c-4.635,0-8.393,3.758-8.393,8.393v19.025c0,4.635,3.758,8.393,8.393,8.393 c4.635,0,8.393-3.758,8.393-8.393v-19.025C468.916,261.953,465.158,258.195,460.522,258.195z"/> </g> </g> </g>
</svg>