<svg width="256" height="256" viewBox="0 0 256 256" fill="none" xmlns="http://www.w3.org/2000/svg">
<g clip-path="url(#clip0_63_167)">
<path d="M11.6178 192.236H21.1506L23.8483 114.062C23.8663 98.8143 30.9474 93.819 33.6153 91.9368C33.737 91.8512 44.1636 84.7318 44.1636 84.7318L42.0705 81.1727C41.1244 79.5649 41.6614 77.4934 43.2698 76.5469L45.2651 75.3733L40.0932 66.5798L37.087 68.3481C36.563 68.6562 35.971 68.8143 35.3737 68.8143C35.0898 68.8143 34.8047 68.7787 34.5254 68.7062C33.6581 68.4814 32.9157 67.921 32.4611 67.1483L27.4762 58.6724C26.5301 57.0641 27.0672 54.9936 28.6755 54.047L51.7623 40.4669C52.5354 40.0118 53.4567 39.883 54.3239 40.1087C55.1912 40.3335 55.9336 40.8939 56.3882 41.6666L61.3735 50.1425C62.3196 51.7508 61.7826 53.8213 60.1743 54.7679L57.1685 56.5357L62.3408 65.3296L64.3361 64.1556C65.1092 63.701 66.03 63.5708 66.8977 63.7974C67.7649 64.0223 68.5074 64.5827 68.9619 65.3549L101.588 120.825C102.534 122.433 101.997 124.504 100.389 125.451L96.7512 127.59L103.001 138.216C103.455 138.988 103.584 139.909 103.359 140.778C103.134 141.645 102.574 142.387 101.801 142.841L93.8337 147.527C93.2958 147.843 92.7061 147.993 92.124 147.993C90.9662 147.993 89.8381 147.398 89.2083 146.327L82.9593 135.703L79.3223 137.842C78.7984 138.15 78.2064 138.308 77.609 138.308C77.3252 138.308 77.04 138.272 76.7607 138.2C75.8935 137.975 75.1511 137.414 74.6965 136.642L69.6445 128.054L61.4695 132.863C59.3571 134.105 57.8546 136.096 57.2387 138.47C56.6238 140.842 56.9689 143.313 58.2119 145.425L72.7381 170.124L78.4452 166.767L77.6113 165.35C76.6652 163.741 77.2022 161.67 78.8105 160.724L120.636 136.124C121.409 135.669 122.33 135.54 123.198 135.766C124.065 135.99 124.808 136.551 125.262 137.323L130.353 145.983C131.3 147.591 130.762 149.662 129.154 150.608L122.817 154.335L125.878 159.538C126.824 161.147 126.287 163.218 124.678 164.164L101.353 177.883C100.829 178.192 100.237 178.35 99.6395 178.35C99.3556 178.35 99.0705 178.314 98.7911 178.242C97.9239 178.017 97.1815 177.456 96.7269 176.684L93.6666 171.48L90.2341 173.499L101.262 192.236H117.914C124.32 192.236 129.532 197.448 129.532 203.854V208.567C129.532 210.434 128.019 211.946 126.153 211.946H3.3784C1.51194 211.946 -0.000426281 210.434 -0.000426281 208.567V203.854C-0.000426281 197.448 5.21153 192.236 11.6178 192.236ZM52.2764 48.0052L35.0137 58.1584L36.5729 60.8097L53.8356 50.657L52.2764 48.0052ZM51.3434 59.9622L45.9174 63.1537L51.0893 71.9472L51.2659 71.8436L56.5152 68.7558L51.3434 59.9622ZM93.3197 139.989L95.4619 138.729L90.9261 131.016L88.7839 132.276L93.3197 139.989ZM70.1166 115.527L78.8078 130.304L94.0495 121.339L64.8497 71.6935L49.608 80.6583L55.994 91.5151C57.3032 91.1295 58.6633 90.924 60.0351 90.924C65.1083 90.924 69.8557 93.6375 72.4259 98.007C75.83 103.795 74.7005 111.017 70.1166 115.527ZM66.6008 101.433C65.2398 99.1188 62.7242 97.6817 60.0351 97.6817C58.6894 97.6817 57.3599 98.0453 56.1904 98.7327C52.576 100.86 51.3645 105.53 53.4905 109.144C54.8515 111.458 57.3671 112.895 60.0562 112.895C61.4019 112.895 62.7314 112.531 63.9004 111.844C67.5149 109.718 68.7263 105.047 66.6008 101.433ZM100.839 170.345L118.34 160.052L116.993 157.761L99.4917 168.055L100.839 170.345ZM122.816 146.496L121.15 143.662L85.1492 164.836L86.8157 167.67L122.816 146.496ZM81.8709 172.592L73.2517 177.661C72.7278 177.969 72.1358 178.128 71.5384 178.128C71.2546 178.128 70.9694 178.092 70.6901 178.02C69.8229 177.795 69.0804 177.234 68.6259 176.463L52.3863 148.852C50.2284 145.183 49.6287 140.893 50.6969 136.773C51.765 132.653 54.3744 129.195 58.0429 127.038L66.2179 122.229L64.3154 118.994C62.9391 119.424 61.5042 119.653 60.0553 119.653C54.9817 119.653 50.2338 116.939 47.6645 112.57C44.2199 106.713 45.4187 99.3905 50.1391 94.8926L47.596 90.569C47.596 90.569 37.6456 97.3623 37.51 97.4583C35.4439 98.9157 30.605 102.33 30.605 114.121C30.605 114.16 30.6041 114.199 30.6028 114.238L27.9105 192.236H93.4233L81.8709 172.592ZM6.75723 205.188H122.774V203.854C122.774 201.174 120.594 198.994 117.914 198.994H11.6178C8.9377 198.994 6.75723 201.174 6.75723 203.854V205.188Z" fill="#FFBB00"/>
<path d="M216.483 111.635L207.629 93.5308V63.9755C209.936 63.3759 211.653 61.2691 211.653 58.7805C211.653 55.8293 209.239 53.4147 206.287 53.4147H196.897V50.7318C199.848 50.7318 202.263 48.3172 202.263 45.366C202.263 42.4147 199.848 40 196.897 40H170.068C167.116 40 164.702 42.4147 164.702 45.3658C164.702 48.317 167.116 50.7317 170.068 50.7317V71.927L150.616 111.769C149.677 113.647 149.811 115.927 151.019 117.671C152.226 119.415 154.104 120.488 156.25 120.488H198.238H210.848C212.995 120.488 214.873 119.415 216.08 117.537C217.153 115.793 217.288 113.513 216.483 111.635ZM198.306 117.804C194.582 117.769 191.665 114.832 191.665 111.098V92.854C191.665 92.6287 191.616 92.4286 191.531 92.2507V64.1465H204.946V93.9272V111.098C204.946 114.832 202.03 117.769 198.306 117.804ZM208.97 58.7807C208.97 60.2564 207.763 61.4637 206.287 61.4637H190.19C188.714 61.4637 187.507 60.2564 187.507 58.7807C187.507 57.305 188.714 56.0977 190.19 56.0977H195.555H206.287C207.763 56.0977 208.97 57.305 208.97 58.7807ZM167.385 45.3658C167.385 43.8902 168.592 42.6828 170.068 42.6828H196.897C198.373 42.6828 199.58 43.8902 199.58 45.3658C199.58 46.8415 198.373 48.0488 196.897 48.0488H195.556H171.409H170.068C168.592 48.0488 167.385 46.8415 167.385 45.3658ZM172.616 72.7319C172.751 72.5978 172.751 72.4636 172.751 72.1954V50.7318H194.348V53.4148H190.324H190.19C187.239 53.4148 184.824 55.8295 184.824 58.7807C184.824 61.1282 186.352 63.1348 188.463 63.8581C188.589 63.903 188.718 63.9429 188.848 63.9777V90.1804C187.837 89.4196 186.843 88.5686 185.897 87.6223C180.847 82.5726 172.959 81.5682 166.778 84.6071L172.616 72.7319ZM156.25 117.805C154.909 117.805 153.836 117.269 153.165 116.196C152.494 115.122 152.36 113.915 152.897 112.842L164.442 89.3579C169.675 84.2691 178.79 84.4057 184.019 89.5004C185.457 90.9382 187.149 92.3748 188.848 93.4404V111.098C188.848 113.741 189.91 116.108 191.634 117.806L156.25 117.805ZM213.8 116.196C213.129 117.269 212.056 117.805 210.848 117.805H204.843C206.111 116.557 207.019 114.946 207.411 113.13C207.419 113.094 207.429 113.057 207.436 113.02C207.45 112.951 207.461 112.881 207.474 112.811C207.49 112.722 207.507 112.633 207.521 112.543C207.525 112.513 207.528 112.482 207.533 112.452C207.551 112.324 207.568 112.197 207.581 112.067C207.583 112.046 207.583 112.024 207.586 112.003C207.598 111.866 207.61 111.728 207.617 111.588C207.625 111.425 207.629 111.262 207.629 111.098V99.6957L214.068 112.842C214.605 113.915 214.47 115.123 213.8 116.196Z" fill="#FFBB00"/>
<path d="M200.92 69.512H195.554C194.749 69.512 194.213 70.0485 194.213 70.8534C194.213 71.6583 194.749 72.1948 195.554 72.1948H200.92C201.725 72.1948 202.262 71.6583 202.262 70.8534C202.262 70.0485 201.725 69.512 200.92 69.512Z" fill="#FFBB00"/>
<path d="M195.554 77.5615H196.896C197.701 77.5615 198.237 77.025 198.237 76.2201C198.237 75.4152 197.701 74.8787 196.896 74.8787H195.554C194.749 74.8787 194.213 75.4152 194.213 76.2201C194.213 77.025 194.749 77.5615 195.554 77.5615Z" fill="#FFBB00"/>
<path d="M200.92 80.2444H195.554C194.749 80.2444 194.213 80.7809 194.213 81.5858C194.213 82.3907 194.749 82.9272 195.554 82.9272H200.92C201.725 82.9272 202.262 82.3907 202.262 81.5858C202.262 80.7809 201.725 80.2444 200.92 80.2444Z" fill="#FFBB00"/>
<path d="M195.554 88.293H196.896C197.701 88.293 198.237 87.7564 198.237 86.9515C198.237 86.1466 197.701 85.6101 196.896 85.6101H195.554C194.749 85.6101 194.213 86.1466 194.213 86.9515C194.213 87.7564 194.749 88.293 195.554 88.293Z" fill="#FFBB00"/>
<path d="M200.92 90.9763H195.554C194.749 90.9763 194.213 91.5129 194.213 92.3177C194.213 93.1226 194.749 93.6592 195.554 93.6592H200.92C201.725 93.6592 202.262 93.1226 202.262 92.3177C202.262 91.5129 201.725 90.9763 200.92 90.9763Z" fill="#FFBB00"/>
<path d="M196.896 96.342H195.554C194.749 96.342 194.213 96.8786 194.213 97.6835C194.213 98.4883 194.749 99.0249 195.554 99.0249H196.896C197.701 99.0249 198.237 98.4883 198.237 97.6835C198.237 96.8786 197.701 96.342 196.896 96.342Z" fill="#FFBB00"/>
<path d="M205.5 189.067C205.5 193.797 209.37 197.667 214.1 197.667C218.83 197.667 222.7 193.797 222.7 189.067V183.333V173.3H225.567C226.427 173.3 227 172.727 227 171.867V160.4C227 159.54 226.427 158.967 225.567 158.967H222.7V156.1H224.133C224.993 156.1 225.567 155.527 225.567 154.667V146.067C225.567 145.207 224.993 144.633 224.133 144.633H204.067C203.207 144.633 202.634 145.207 202.634 146.067V154.667C202.634 155.527 203.207 156.1 204.067 156.1H205.5V158.967H202.633C201.773 158.967 201.2 159.54 201.2 160.4V161.833H192.6C192.6 160.778 192.021 159.854 191.167 159.356V154.277C192.021 153.779 192.6 152.855 192.6 151.8V143.2C192.6 142.145 192.021 141.221 191.167 140.723V136.033C191.167 135.173 190.594 134.6 189.734 134.6H179.7C178.84 134.6 178.267 135.173 178.267 136.033V140.664C178.007 140.799 177.768 140.975 177.55 141.193C177.12 141.766 176.833 142.483 176.833 143.2H166.8V141.767C166.8 140.907 166.227 140.333 165.367 140.333H162.5V137.467H163.933C164.793 137.467 165.367 136.893 165.367 136.033V127.433C165.367 126.573 164.793 126 163.933 126H143.867C143.007 126 142.433 126.573 142.433 127.433V136.033C142.433 136.893 143.007 137.467 143.867 137.467H145.3V140.333H142.433C141.573 140.333 141 140.907 141 141.767V153.233C141 154.093 141.573 154.667 142.433 154.667H145.3V158.967V170.433C145.3 175.163 149.17 179.033 153.9 179.033C158.63 179.033 162.5 175.163 162.5 170.433V158.967V154.667H165.367C166.227 154.667 166.8 154.093 166.8 153.233V151.8H176.84C176.875 152.486 177.148 153.271 177.55 153.807C177.768 154.025 178.007 154.201 178.267 154.336V159.297C178.007 159.432 177.768 159.609 177.55 159.827C177.12 160.4 176.833 161.117 176.833 161.833V170.29C176.833 171.007 177.12 171.867 177.55 172.44C177.685 172.575 177.829 172.693 177.98 172.796V200.533H146.733C143.58 200.533 141 203.113 141 206.267C141 209.42 143.58 212 146.733 212H176.833C177.263 212 177.55 211.857 177.837 211.57L180.273 209.133H189.16L191.597 211.57C191.884 211.857 192.17 212 192.6 212H221.267C224.42 212 227 209.42 227 206.267C227 203.113 224.42 200.533 221.267 200.533H190.88V173.058C191.89 172.613 192.6 171.603 192.6 170.433H201.2V171.867C201.2 172.727 201.773 173.3 202.633 173.3H205.5V183.333V189.067ZM219.833 189.067C219.833 192.22 217.253 194.8 214.1 194.8C210.947 194.8 208.367 192.22 208.367 189.067V184.767H219.834V189.067H219.833ZM224.133 170.433H221.267V161.833H224.133V170.433ZM205.5 147.5H222.7V153.233H221.267H206.934H205.5V147.5ZM179.7 161.833H189.733V163.266V169V170.433H189.447H179.7V161.833ZM179.7 150.367V144.633V143.2H189.733V151.8H179.7V150.367ZM181.133 154.667H188.3V158.967H181.133V154.667ZM181.133 137.467H188.3V140.333H181.133V137.467ZM145.3 128.867H162.5V134.6H161.067H146.733H145.3V128.867ZM143.867 143.2H146.733V151.8H143.867V143.2ZM159.633 170.433C159.633 173.586 157.053 176.166 153.9 176.166C150.747 176.166 148.167 173.586 148.167 170.433V160.4H159.633L159.633 170.433ZM159.633 157.533H148.167V154.666C149.027 154.666 149.6 154.093 149.6 153.233V141.767C149.6 140.907 149.027 140.333 148.167 140.333V137.467H159.633V140.333C158.773 140.333 158.2 140.907 158.2 141.767V153.233C158.2 154.093 158.773 154.667 159.633 154.667L159.633 157.533ZM163.933 151.8H161.067V143.2H163.933V144.633V150.366V151.8ZM166.8 146.067H176.833V148.933H166.8V146.067ZM224.133 206.267C224.133 207.843 222.843 209.133 221.267 209.133H193.173L190.737 206.697C190.45 206.41 190.163 206.267 189.733 206.267H179.7C179.27 206.267 178.983 206.41 178.697 206.697L176.26 209.133H146.733C145.157 209.133 143.867 207.843 143.867 206.267C143.867 204.69 145.157 203.4 146.733 203.4H179.413H189.447H221.267C222.843 203.4 224.133 204.69 224.133 206.267ZM180.847 200.533V173.3H188.014V200.533H180.847ZM192.6 167.567V164.7H201.2V167.567H192.6ZM204.067 169V163.267V161.833H206.934V170.433H204.067V169ZM208.367 158.967V156.1H219.834V158.967C218.974 158.967 218.4 159.54 218.4 160.4V171.867C218.4 172.727 218.974 173.3 219.834 173.3V181.9H208.367V173.3C209.227 173.3 209.8 172.727 209.8 171.867V160.4C209.8 159.54 209.227 158.967 208.367 158.967Z" fill="#FFBB00"/>
</g>
<defs>
<clipPath id="clip0_63_167">
<rect width="256" height="256" fill="white"/>
</clipPath>
</defs>
</svg>
