<svg width="257" height="273" viewBox="0 0 257 273" fill="none" xmlns="http://www.w3.org/2000/svg">
<path d="M4.96875 268.403L249.557 268.403" stroke="#FFBB00" stroke-width="8" stroke-linecap="round"/>
<rect x="213.867" y="4" width="39.1317" height="264.372" rx="12" stroke="#FFBB00" stroke-width="8"/>
<rect x="213.806" y="192.031" width="25.2403" height="208.806" rx="12" transform="rotate(90 213.806 192.031)" stroke="#FFBB00" stroke-width="8"/>
<rect x="37.2158" y="217.799" width="132.465" height="50.6047" stroke="#FFBB00" stroke-width="8"/>
<rect x="165.247" y="44.6821" width="45.5813" height="29.7054" stroke="#FFBB00" stroke-width="8"/>
<rect x="41.7129" y="12.4341" width="123.473" height="93.7054" rx="22" stroke="#FFBB00" stroke-width="8"/>
<rect x="65.0303" y="42.6978" width="76.8371" height="46.5736" rx="6" stroke="#FFBB00" stroke-width="8"/>
<path d="M132.969 119.938C132.969 128.775 125.805 135.938 116.969 135.938H89.9297C81.0931 135.938 73.9297 128.775 73.9297 119.938V118.202C73.9297 109.365 81.0931 102.202 89.9297 102.202H116.969C125.805 102.202 132.969 109.365 132.969 118.202V119.938ZM90.7979 110.139C85.8656 110.139 81.8672 114.138 81.8672 119.07V119.07C81.8672 124.002 85.8656 128 90.7979 128H116.1C121.032 128 125.03 124.002 125.03 119.07V119.07C125.03 114.138 121.032 110.139 116.1 110.139H90.7979Z" fill="#FFBB00"/>
<path d="M78.6426 159.256C78.6426 159.256 87.5728 170.667 103.697 170.667C119.821 170.667 127.511 159.256 127.511 159.256" stroke="#FFBB00" stroke-width="8" stroke-linecap="round"/>
<path d="M92.7822 146.357C92.7822 146.357 96.6807 151.318 103.72 151.318C110.759 151.318 114.116 146.357 114.116 146.357" stroke="#FFBB00" stroke-width="8" stroke-linecap="round"/>
<ellipse cx="67.4799" cy="27.7831" rx="6.4496" ry="6.44961" fill="#FFBB00"/>
<rect x="126.519" y="23.3179" width="19.3488" height="8.93023" rx="4.46512" fill="#FFBB00"/>
</svg>
