<svg width="800" height="570" viewBox="0 0 800 570" fill="none" xmlns="http://www.w3.org/2000/svg">
<path d="M319.453 214.547V191.656C319.453 188.219 316.641 185.406 313.203 185.406H271.797C268.359 185.406 265.547 188.219 265.547 191.656V212.125C265.547 221.578 257.891 229.234 248.438 229.234H228.75C225.313 229.234 222.5 232.047 222.5 235.484V276.891C222.5 280.328 225.313 283.141 228.75 283.141H240.547C244.609 283.141 250.938 286.422 250.938 290.484L251.719 321.031C251.719 328.609 253.984 334.703 261.563 334.703H271.172C274.297 334.703 277.109 335.719 279.375 334.234C279.609 334.078 279.922 333.922 280.234 333.922H310.938C315.625 333.922 319.453 330.094 319.453 325.406V299.312C319.453 290.406 326.641 283.141 335.625 283.141H362.5C365.938 283.141 368.75 280.328 368.75 276.891V227.906C368.75 221.422 363.438 216.109 356.953 216.109H321.094C320.156 216.109 319.453 215.406 319.453 214.547Z" fill="#FFD45C"/>
<path d="M84.0625 412.516H152.969V418.766H84.0625V412.516ZM279.844 412.516H521.016V418.766H279.844V412.516ZM648.75 412.516H711.797V418.766H648.75V412.516Z" fill="#FFBB00"/>
<path d="M310.078 337.672H263.047C255.781 337.672 249.844 331.734 249.844 324.469V294.234C249.844 290.406 246.719 287.281 242.891 287.281H212.656C205.391 287.281 199.453 281.344 199.453 274.078V227.047C199.453 219.781 205.391 213.844 212.656 213.844H213.203V220.094H212.656C208.828 220.094 205.703 223.219 205.703 227.047V274.078C205.703 277.906 208.828 281.031 212.656 281.031H242.891C250.156 281.031 256.094 286.969 256.094 294.234V324.469C256.094 328.297 259.219 331.422 263.047 331.422H310.078C313.906 331.422 317.031 328.297 317.031 324.469V294.234C317.031 286.969 322.969 281.031 330.234 281.031H360.469C364.297 281.031 367.422 277.906 367.422 274.078V227.047C367.422 223.219 364.297 220.094 360.469 220.094H330.234C322.969 220.094 317.031 214.156 317.031 206.891V176.656C317.031 172.828 313.906 169.703 310.078 169.703H263.047C259.219 169.703 256.094 172.828 256.094 176.656V206.891C256.094 214.156 250.156 220.094 242.891 220.094H235.313V213.844H242.891C246.719 213.844 249.844 210.719 249.844 206.891V176.656C249.844 169.391 255.781 163.453 263.047 163.453H310.078C317.344 163.453 323.281 169.391 323.281 176.656V206.891C323.281 210.719 326.406 213.844 330.234 213.844H360.469C367.734 213.844 373.672 219.781 373.672 227.047V274.078C373.672 281.344 367.734 287.281 360.469 287.281H330.234C326.406 287.281 323.281 290.406 323.281 294.234V324.469C323.281 331.734 317.344 337.672 310.078 337.672ZM524.766 90.7969H467.656V58.2969C467.656 44.7813 478.672 33.7656 492.188 33.7656H500.156C513.672 33.7656 524.687 44.7813 524.687 58.2969V90.7969H524.766ZM479.375 79.0781H513.047V58.2969C513.047 51.1875 507.266 45.4844 500.234 45.4844H492.266C485.156 45.4844 479.453 51.2656 479.453 58.2969V79.0781H479.375Z" fill="#FFBB00"/>
<path d="M732.578 480.719H660.937V474.859C660.937 431.734 625.859 396.656 582.734 396.656C539.609 396.656 504.531 431.734 504.531 474.859V480.719H294.609V474.859C294.609 431.734 259.531 396.656 216.406 396.656C173.281 396.656 138.203 431.734 138.203 474.859V480.719H67.0313C58.2031 480.719 51.0938 473.531 51.0938 464.781V422.75C51.0938 413.922 58.2813 406.813 67.0313 406.813H77.9688V95.0156C77.9688 86.1875 85.1562 79.0781 93.9062 79.0781H563.125C603.984 79.0781 644.297 107.75 676.641 159.703C703.906 203.609 721.562 259.547 721.562 302.203V406.734H732.5C741.328 406.734 748.437 413.922 748.437 422.672V464.703C748.516 473.531 741.328 480.719 732.578 480.719ZM672.5 469H732.578C734.922 469 736.797 467.125 736.797 464.781V422.75C736.797 420.406 734.922 418.531 732.578 418.531H709.922V302.203C709.922 261.578 692.969 208.063 666.797 165.875C626.172 100.484 584.453 90.7188 563.203 90.7188H93.9062C91.5625 90.7188 89.6875 92.5938 89.6875 94.9375V418.453H67.0313C64.6875 418.453 62.8125 420.328 62.8125 422.672V464.703C62.8125 467.047 64.6875 468.922 67.0313 468.922H126.719C129.766 422.047 168.828 384.859 216.406 384.859C263.984 384.859 303.047 422.047 306.094 468.922H493.047C496.094 422.047 535.156 384.859 582.734 384.859C630.313 384.859 669.453 422.125 672.5 469Z" fill="#FFBB00"/>
<path d="M215.547 542.906C178.047 542.906 147.5 512.359 147.5 474.859C147.5 437.359 178.047 406.812 215.547 406.812C253.047 406.812 283.594 437.359 283.594 474.859C283.594 512.359 253.047 542.906 215.547 542.906ZM215.547 418.531C184.453 418.531 159.219 443.766 159.219 474.859C159.219 505.953 184.453 531.187 215.547 531.187C246.641 531.187 271.875 505.953 271.875 474.859C271.875 443.766 246.641 418.531 215.547 418.531Z" fill="#FFBB00"/>
<path d="M215.547 493.062C205.469 493.062 197.266 484.859 197.266 474.781C197.266 464.703 205.469 456.5 215.547 456.5C225.625 456.5 233.828 464.703 233.828 474.781C233.828 484.859 225.625 493.062 215.547 493.062ZM215.547 462.828C208.906 462.828 203.516 468.219 203.516 474.859C203.516 481.5 208.906 486.891 215.547 486.891C222.187 486.891 227.578 481.5 227.578 474.859C227.578 468.219 222.187 462.828 215.547 462.828ZM583.594 493.062C573.516 493.062 565.312 484.859 565.312 474.781C565.312 464.703 573.516 456.5 583.594 456.5C593.672 456.5 601.875 464.703 601.875 474.781C601.875 484.859 593.672 493.062 583.594 493.062ZM583.594 462.828C576.953 462.828 571.562 468.219 571.562 474.859C571.562 481.5 576.953 486.891 583.594 486.891C590.234 486.891 595.625 481.5 595.625 474.859C595.625 468.219 590.234 462.828 583.594 462.828Z" fill="#FFBB00"/>
<path d="M583.594 542.906C546.094 542.906 515.547 512.359 515.547 474.859C515.547 437.359 546.094 406.813 583.594 406.813C621.094 406.813 651.641 437.359 651.641 474.859C651.641 512.359 621.094 542.906 583.594 542.906ZM583.594 418.531C552.5 418.531 527.266 443.766 527.266 474.859C527.266 505.953 552.5 531.187 583.594 531.187C614.687 531.187 639.922 505.953 639.922 474.859C639.922 443.766 614.687 418.531 583.594 418.531ZM657.812 312.047H509.531C506.719 312.047 504.375 309.781 504.375 306.891V140.406C504.375 133.531 510 127.906 516.875 127.906H539.062C573.984 127.906 606.875 141.578 631.719 166.422C656.562 191.266 670.234 224.156 670.234 259.078V299.469C670.313 306.422 664.766 312.047 657.812 312.047ZM510.703 305.797H657.812C661.25 305.797 664.062 302.984 664.062 299.547V259.156C664.062 225.875 651.016 194.547 627.344 170.875C603.672 147.203 572.344 134.156 539.062 134.156H516.875C513.437 134.156 510.625 136.969 510.625 140.406V305.797H510.703ZM466.172 84.9375H472.422V412.672H466.172V84.9375Z" fill="#FFBB00"/>
</svg>
