<svg width="665" height="665" viewBox="0 0 665 665" fill="none" xmlns="http://www.w3.org/2000/svg">
<g clip-path="url(#clip0_60_129)">
<path d="M458.019 451.369C439.399 438.069 389.856 428.648 367.413 425.6L341.644 532.416L266.416 508.725L195.344 532.416L167.497 425.6C161.124 428.787 136.907 436.988 91.0221 444.303C45.1371 451.618 18.9804 506.093 11.6377 532.416V654.609H526.181C523.549 615.264 517.536 531.003 514.544 508.725C510.803 480.878 481.294 467.994 458.019 451.369Z" fill="#FFD45C"/>
<path d="M427.102 428.346L343.226 409.704V383.201C374.524 360.612 395.246 324.37 396.63 283.236C424.399 253.923 439.758 215.825 439.758 175.292V128.71C439.758 101.552 419.454 79.0277 393.23 75.5526C370.727 29.4423 323.962 0 272.264 0H254.212C219.332 0 184.945 11.7984 157.401 33.2178C118.713 63.3037 96.5323 108.674 96.5323 157.68V175.292C96.5323 215.825 111.892 253.923 139.661 283.236C141.044 324.37 161.767 360.612 193.065 383.201V409.704L109.189 428.335C44.8982 442.633 0 498.589 0 564.456V665H536.29V564.456C536.29 498.589 491.392 442.633 427.102 428.346ZM352.783 433.805L335.289 521.231L284.899 499.63L336.919 430.276L352.783 433.805ZM375.403 214.516H351.131C352.911 207.641 353.952 200.487 353.952 193.065C353.952 185.642 352.911 178.488 351.131 171.613H375.403V214.516ZM139.435 150.161V225.242V235.968V248.442C125.524 226.797 117.984 201.634 117.984 175.292V157.68C117.984 115.335 137.151 76.1318 170.573 50.1431C194.373 31.6411 224.084 21.4516 254.212 21.4516H272.264C317.591 21.4516 358.414 48.3734 376.272 90.0324L379.061 96.5323H386.129C403.87 96.5323 418.306 110.969 418.306 128.71V175.292C418.306 201.634 410.766 226.797 396.855 248.442V235.968V225.242V150.161H342.336C327.47 124.559 299.818 107.258 268.145 107.258C236.472 107.258 208.81 124.559 193.955 150.161H139.435ZM332.5 193.065C332.5 228.556 303.637 257.419 268.145 257.419C232.653 257.419 203.79 228.556 203.79 193.065C203.79 157.573 232.653 128.71 268.145 128.71C303.637 128.71 332.5 157.573 332.5 193.065ZM185.16 214.516H160.887V171.613H185.16C183.379 178.488 182.339 185.642 182.339 193.065C182.339 200.487 183.379 207.641 185.16 214.516ZM160.887 278.871V235.968H193.955C208.821 261.57 236.472 278.871 268.145 278.871C299.818 278.871 327.48 261.57 342.336 235.968H375.403V278.871C375.403 338.013 327.287 386.129 268.145 386.129C209.003 386.129 160.887 338.013 160.887 278.871ZM199.361 430.276L251.381 499.63L200.991 521.231L183.497 433.805L199.361 430.276ZM257.419 643.548H128.71V600.645H107.258V643.548H21.4516V564.456C21.4516 508.736 59.4424 461.371 113.833 449.293L162.56 438.46L185.138 551.36L257.419 520.373V643.548ZM214.516 414.745V395.729C230.862 403.258 248.989 407.581 268.145 407.581C287.301 407.581 305.428 403.258 321.774 395.729V414.745L268.145 486.254L214.516 414.745ZM514.839 643.548H429.032V600.645H407.581V643.548H278.871V520.373L351.152 551.349L373.73 438.449L422.457 449.283C476.848 461.371 514.839 508.736 514.839 564.456V643.548Z" fill="#FFBB00"/>
<path d="M285.119 178.719V153.781H251.869V178.719H226.932V211.969H251.869V236.906H285.119V211.969H310.057V178.719H285.119ZM301.744 203.656H276.807V228.594H260.182V203.656H235.244V187.031H260.182V162.094H276.807V187.031H301.744V203.656Z" fill="#FFBB00"/>
<path d="M478.986 26.7142C488.294 23.2684 498.851 25.4788 505.995 32.622C515.991 42.6179 515.991 58.8293 505.995 68.8257C495.996 78.8244 479.787 78.8244 469.789 68.8257C462.615 61.6526 460.419 51.0374 463.924 41.7047C464.808 39.3494 463.616 36.7232 461.261 35.8387C458.906 34.9541 456.28 36.1463 455.395 38.5015C450.645 51.1506 453.623 65.5441 463.346 75.2678C476.903 88.8244 498.881 88.8244 512.437 75.2678C525.991 61.7135 525.991 39.7338 512.437 26.1794C502.753 16.4973 488.438 13.5001 475.823 18.1704C473.464 19.0439 472.259 21.6645 473.132 24.0237C474.006 26.383 476.627 27.5876 478.986 26.7142Z" fill="#FFBB00"/>
<path d="M473.139 26.2644L484.9 38.0238C485.864 38.9878 485.864 40.5552 484.9 41.5187L478.689 47.7297C477.723 48.6952 476.159 48.6952 475.194 47.7297L463.496 36.0337C461.717 34.255 458.832 34.2552 457.054 36.0344C455.275 37.8136 455.275 40.6978 457.054 42.4765L468.752 54.172C473.275 58.6952 480.608 58.6952 485.131 54.1718L491.342 47.9608C495.863 43.4398 495.863 36.1062 491.344 31.5828L479.58 19.8217C477.801 18.0429 474.917 18.0432 473.138 19.8223C471.359 21.6015 471.359 24.4857 473.139 26.2644ZM623.278 201.213C613.97 204.659 603.413 202.448 596.268 195.305C586.272 185.309 586.272 169.098 596.269 159.101C606.267 149.103 622.477 149.103 632.475 159.101C639.648 166.275 641.845 176.89 638.34 186.222C637.455 188.578 638.647 191.204 641.003 192.088C643.358 192.973 645.984 191.781 646.869 189.426C651.619 176.777 648.641 162.383 638.917 152.659C625.361 139.103 603.383 139.103 589.827 152.659C576.272 166.214 576.272 188.193 589.827 201.748C599.511 211.43 613.826 214.427 626.441 209.757C628.8 208.883 630.005 206.263 629.131 203.903C628.258 201.544 625.637 200.339 623.278 201.213H623.278Z" fill="#FFBB00"/>
<path d="M629.125 201.663L617.366 189.904C616.4 188.938 616.4 187.373 617.364 186.41L623.575 180.197C624.54 179.232 626.104 179.232 627.07 180.198L638.768 191.893C640.547 193.672 643.431 193.672 645.21 191.893C646.989 190.114 646.988 187.229 645.209 185.451L633.511 173.755C628.988 169.232 621.656 169.232 617.132 173.755L610.923 179.967C606.4 184.487 606.4 191.822 610.923 196.346L622.683 208.105C624.462 209.884 627.346 209.884 629.125 208.105C630.904 206.326 630.904 203.442 629.125 201.663L629.125 201.663ZM587.255 164.191L500.229 77.1648C498.45 75.3858 495.566 75.3858 493.787 77.1648C492.008 78.9437 492.008 81.8279 493.787 83.6069L580.813 170.633C582.592 172.412 585.476 172.412 587.255 170.633C589.034 168.854 589.034 165.969 587.255 164.191ZM513.699 62.1138L602.752 151.167C604.531 152.946 607.415 152.946 609.194 151.167C610.973 149.388 610.973 146.504 609.194 144.725L520.141 55.6717C518.362 53.8927 515.478 53.8927 513.699 55.6717C511.92 57.4506 511.92 60.3348 513.699 62.1138ZM570.621 87.141L609.931 47.8315C611.71 46.0525 611.71 43.1683 609.931 41.3894C608.152 39.6104 605.268 39.6104 603.489 41.3894L564.179 80.6989C562.4 82.4778 562.4 85.362 564.179 87.141C565.958 88.9199 568.842 88.9199 570.621 87.141ZM618.308 53.7964L577.704 94.0056C575.917 95.7759 575.903 98.6601 577.673 100.448C579.443 102.235 582.328 102.249 584.115 100.479L624.718 60.2699C626.506 58.4996 626.52 55.6154 624.75 53.8278C622.979 52.0402 620.095 52.0262 618.308 53.7964Z" fill="#FFBB00"/>
<path d="M647.589 29.1386C648.193 29.743 648.615 30.5051 648.807 31.338C648.999 32.1709 648.952 33.041 648.673 33.8487L642.4 51.9831C642.175 52.6351 641.804 53.2272 641.316 53.715C640.829 54.2028 640.236 54.5735 639.585 54.799L621.448 61.0738C620.64 61.3533 619.77 61.3999 618.937 61.2082C618.104 61.0165 617.342 60.5942 616.737 59.9898L604.877 48.1279C604.273 47.5235 603.851 46.7614 603.66 45.9285C603.468 45.0956 603.514 44.2257 603.794 43.418L610.066 25.2835C610.292 24.6317 610.662 24.0395 611.15 23.5518C611.638 23.064 612.23 22.6934 612.882 22.4679L631.016 16.1931C631.824 15.9135 632.694 15.8669 633.527 16.0586C634.36 16.2503 635.122 16.6725 635.727 17.2769L647.589 29.1388L647.589 29.1386ZM631.301 25.7351L617.953 30.3537L613.336 43.7023L621.164 51.5318L634.514 46.913L639.131 33.5649L631.301 25.7351H631.301ZM537.624 146.861L483.672 200.813C482.004 202.481 480.001 202.696 479.282 201.978L462.703 185.398C461.986 184.681 462.201 182.679 463.87 181.009L517.716 127.165C519.495 125.386 519.495 122.502 517.717 120.723C515.938 118.944 513.053 118.944 511.274 120.722L457.427 174.568C452.471 179.527 451.643 187.219 456.259 191.839L472.842 208.421C477.463 213.039 485.158 212.21 490.114 207.255L544.066 153.303C545.845 151.524 545.845 148.639 544.066 146.86C542.287 145.082 539.403 145.082 537.624 146.86L537.624 146.861Z" fill="#FFBB00"/>
</g>
<defs>
<clipPath id="clip0_60_129">
<rect width="665" height="665" fill="white"/>
</clipPath>
</defs>
</svg>
