<svg width="86" height="100" viewBox="0 0 86 100" fill="none" xmlns="http://www.w3.org/2000/svg">
<path d="M71.3395 74.9872C69.1402 76.2571 65.5643 76.2508 63.3512 74.9724C62.2495 74.3359 61.6933 73.5048 61.6838 72.6727C61.6838 72.6367 61.6817 71.5741 61.6838 71.5381C61.7208 70.7367 62.2696 70.9693 63.3259 70.3592C65.5252 69.0893 69.1011 69.0957 71.3141 70.374C72.3546 70.9746 72.9139 70.7536 72.9794 71.5381C72.9837 71.5847 72.9805 72.6272 72.9805 72.6737C72.99 73.5122 72.4434 74.3507 71.3395 74.9872Z" fill="url(#paint0_linear_62_4)"/>
<path d="M71.3396 73.8526C69.1403 75.1225 65.5643 75.1162 63.3513 73.8378C61.1383 72.5605 61.1266 70.4955 63.3259 69.2257C65.5252 67.9558 69.1012 67.9621 71.3142 69.2405C73.5272 70.5177 73.5388 72.5827 71.3396 73.8526Z" fill="#E3F0FA"/>
<path d="M68.5017 71.5498C67.8599 71.9198 66.8163 71.9188 66.1713 71.5455C65.8499 71.3594 65.6871 71.1173 65.6849 70.8741C65.6849 70.8635 65.6849 70.2704 65.6849 70.2598C65.6955 70.0261 65.8562 70.0938 66.1639 69.9162C66.8057 69.5461 67.8493 69.5471 68.4943 69.9204C68.7978 70.0959 68.9606 70.0314 68.9807 70.2598C68.9818 70.2735 68.9807 70.8614 68.9807 70.8752C68.9839 71.1194 68.8242 71.3637 68.5017 71.5498Z" fill="#295E81"/>
<path d="M68.5016 70.9344C67.8598 71.3044 66.8162 71.3034 66.1712 70.9301C65.5252 70.5569 65.522 69.9553 66.1638 69.5841C66.8056 69.2141 67.8493 69.2151 68.4942 69.5884C69.1403 69.9616 69.1434 70.5643 68.5016 70.9344Z" fill="#59C4C5"/>
<path d="M77.3813 84.1659C75.182 85.4358 71.6061 85.4295 69.393 84.1511C68.2913 83.5146 67.7351 82.6835 67.7266 81.8514C67.7266 81.8155 67.7245 80.7528 67.7266 80.7169C67.7637 79.9154 68.3124 80.148 69.3687 79.5379C71.568 78.268 75.144 78.2744 77.357 79.5527C78.3974 80.1533 78.9567 79.9323 79.0234 80.7169C79.0276 80.7634 79.0244 81.8059 79.0244 81.8525C79.0318 82.6909 78.4852 83.5294 77.3813 84.1659Z" fill="url(#paint1_linear_62_4)"/>
<path d="M77.3813 83.0315C75.182 84.3013 71.606 84.295 69.393 83.0167C67.18 81.7394 67.1694 79.6744 69.3676 78.4045C71.5669 77.1346 75.1429 77.141 77.3559 78.4193C79.5689 79.6976 79.5806 81.7616 77.3813 83.0315Z" fill="#E3F0FA"/>
<path d="M74.5433 80.7287C73.9015 81.0988 72.8579 81.0977 72.2118 80.7245C71.8904 80.5384 71.7276 80.2963 71.7255 80.0531C71.7255 80.0425 71.7255 79.4493 71.7255 79.4388C71.736 79.2051 71.8967 79.2727 72.2044 79.0951C72.8462 78.725 73.8898 78.7261 74.5359 79.0993C74.8393 79.2749 75.0022 79.2104 75.0223 79.4388C75.0233 79.4525 75.0223 80.0404 75.0223 80.0541C75.0244 80.2973 74.8647 80.5426 74.5433 80.7287Z" fill="#C9410A"/>
<path d="M74.5433 80.1134C73.9015 80.4835 72.8579 80.4825 72.2119 80.1092C71.5658 79.736 71.5627 79.1343 72.2045 78.7632C72.8463 78.3931 73.8899 78.3942 74.5359 78.7674C75.182 79.1407 75.1851 79.7434 74.5433 80.1134Z" fill="#E3552D"/>
<path d="M36.078 81.7785L2.70801 62.5125V46.3605L30.4243 62.3624L36.078 72.8524V81.7785Z" fill="#919191"/>
<path d="M30.4243 62.3624L2.70801 46.3604L52.0905 17.8585L79.8068 33.8605L30.4243 62.3624Z" fill="#959092"/>
<path d="M79.8067 33.8605L85.4604 44.3504L36.0779 72.8524L30.4243 62.3624L79.8067 33.8605Z" fill="#F3F3F3"/>
<path d="M76.3377 37.7145L80.2731 45.0155L64.2099 54.2874L60.2744 46.9853L76.3377 37.7145Z" fill="#FBC402"/>
<path d="M75.8322 38.7739L79.4526 45.4892L80.2731 45.0155L76.3377 37.7145L60.2744 46.9853L60.5906 47.5711L75.8322 38.7739Z" fill="#B28A00"/>
<path d="M85.4605 44.3503V53.2765L36.078 81.7784V72.8523L85.4605 44.3503Z" fill="#D6D6D6"/>
<path d="M30.4243 60.3165L5.34399 40.1127L2.70801 37.9885L5.92446 28.502L33.6408 50.8289L30.4243 60.3165Z" fill="#919191"/>
<path d="M33.6408 50.8289L5.92444 28.5019L55.3069 0L83.0222 22.327L33.6408 50.8289Z" fill="#F3F3F3"/>
<path d="M17.9952 35.0521V36.2882L30.1484 46.001C30.1484 46.001 36.0241 40.4488 37.9136 39.4888C39.802 38.5297 41.4462 38.0275 41.4462 38.0275L46.6018 35.0521L41.2347 31.8663L17.9952 35.0521Z" fill="#A9A6A8"/>
<path d="M38.3312 39.8251L20.3425 25.3341L48.3433 9.17358L66.3319 23.6646L38.3312 39.8251Z" fill="#D6D6D6"/>
<path d="M66.332 23.6647L48.3433 9.17368L57.3519 3.97363L75.3406 18.4646L66.332 23.6647Z" fill="#C6C4C5"/>
<path d="M38.3312 39.8249L20.3425 25.334L48.5706 12.9027L63.9667 25.0294L38.3312 39.8249Z" fill="#E1E1E1"/>
<path d="M83.0222 22.3269L79.8067 31.8134L30.4243 60.3164L33.6408 50.8288L83.0222 22.3269Z" fill="#B8B6B7"/>
<path d="M78.1193 25.8682L77.7862 26.8103L37.6101 49.9979L37.9442 49.0569L78.1193 25.8682Z" fill="#9D9A9B"/>
<path d="M77.6995 27.4255L77.3664 28.3666L37.1903 51.5553L37.5234 50.6143L77.6995 27.4255Z" fill="#9D9A9B"/>
<path d="M77.2089 29.0348L76.8758 29.9769L36.6997 53.1646L37.0328 52.2235L77.2089 29.0348Z" fill="#9D9A9B"/>
<path d="M76.7183 30.6273L76.3842 31.5684L36.2091 54.7571L36.5422 53.8161L76.7183 30.6273Z" fill="#9D9A9B"/>
<path d="M63.9624 25.0284L60.1284 27.2404L59.7393 27.4646L58.5805 28.137L58.259 28.3242L57.7431 28.616L57.3698 28.8328L49.1933 33.5559L48.7376 33.8171L45.3224 35.7901L43.3641 36.1718C40.0758 36.8147 37.0412 38.3838 34.6125 40.6857L30.1959 44.878L17.5056 34.6535L22.1315 30.2591C24.426 28.0768 27.266 26.5595 30.345 25.8574L42.8334 23.0099C44.8212 22.5616 46.7202 21.7623 48.4384 20.6552L53.8647 17.1649L62.7665 24.1011L63.8281 24.9237L63.9624 25.0284Z" fill="#F3F6EC"/>
<path d="M53.8658 17.1682L53.0495 17.6927L61.5897 25.0296C61.5897 25.0296 56.451 28.5432 55.7045 29.1501C54.957 29.757 49.2113 33.0591 47.0628 33.8606C44.9142 34.6621 42.827 36.2862 42.827 36.2862L45.3235 35.7903L63.9666 25.0296L53.8658 17.1682Z" fill="#C6C4C5"/>
<path d="M53.0579 25.9474L57.7441 28.6151L57.3709 28.8318L53.8351 26.8144L55.1282 29.8638L52.7143 28.7726L53.372 30.716L50.1513 29.6989L50.5319 31.8062L47.2732 29.7961L49.1944 33.5561L48.7387 33.8172L45.5846 31.7543L46.5034 33.1141L43.619 31.8062L44.5452 33.7876L40.5844 30.9994L41.7951 34.0932L39.3885 32.7261L39.8823 35.0734L37.1914 33.5561V34.6695L34.77 33.3309L35.3674 36.7842H33.6492L31.4669 38.7276L29.4939 41.1341L29.202 40.8951L31.1972 38.4664L33.5065 36.4109H34.9191L34.2614 32.6288L36.8181 34.034V32.9132L39.3441 34.3406L38.8577 31.9933L41.0634 33.242L39.785 29.9833L43.6116 32.6732L42.8492 31.0449L45.4577 32.2249L44.2471 30.4316L48.6488 33.3161L46.3396 28.78L50.0159 31.0449L49.6723 29.1607L52.782 30.1398L52.0862 28.0854L54.4114 29.1311L53.0579 25.9474Z" fill="#72C7E5"/>
<path d="M63.955 24.6396L63.8281 24.924L63.7985 24.9832L61.504 23.9365L62.1236 26.0596L59.9117 25.3047L60.1284 27.2407L59.7393 27.4648L57.7441 26.7395L58.5815 28.1373L58.2601 28.3245L56.8771 26.0226L59.7319 27.0683L59.4707 24.7591L61.5632 25.4696L60.9204 23.2566L62.7665 24.1014L63.955 24.6396Z" fill="#72C7E5"/>
<path d="M48.3433 9.17358L48.5706 12.9029L63.9667 25.0296L66.332 23.6646L48.3433 9.17358Z" fill="#858184"/>
<path d="M23.6647 36.6604L23.375 36.4236L25.3681 33.9948L27.6837 31.933H29.0974L28.4397 28.1561L30.9943 29.5624V28.4342L33.644 29.9568L33.0075 27.5038L35.1793 28.7377L33.6969 25.6291L37.811 28.2534L37.0254 26.5712L39.6297 27.7533L38.42 25.9558L42.8884 28.8804L40.7156 23.9014L44.7292 26.4432L44.0695 24.5083L46.9444 25.6344L46.2222 23.4911L48.2788 24.872L47.527 21.3246L52.4944 24.3497L51.5714 21.166L54.1629 22.5321L53.4492 19.6064L55.99 21.1575L54.7593 18.3926L57.5972 19.7798L57.4323 20.1161L55.5195 19.1803L56.819 22.1018L54.0255 20.3963L54.7222 23.25L52.1762 21.9062L53.1204 25.1681L48.0715 22.0944L48.836 25.6957L46.9285 24.4163L47.5555 26.2741L44.6838 25.1501L45.425 27.3261L41.5456 24.8699L43.7332 29.8796L39.7618 27.2807L40.6754 28.6394L37.792 27.3304L38.695 29.26L34.5956 26.6452L36.0272 29.6481L33.5901 28.2651L34.2298 30.7234L31.3675 29.0803V30.1947L28.9409 28.8593L29.5425 32.3062H27.8265L25.6377 34.2528L23.6647 36.6604Z" fill="#FEABA7"/>
<path d="M6.47229 41.0209V44.1876L26.4615 57.1233L6.47229 41.0209Z" fill="#504A4F"/>
<path d="M12.6916 62.15C12.4854 62.0781 12.2633 62.1003 12.0772 62.2166C10.5567 63.1693 8.49915 64.6887 8.30989 64.8473C7.74632 65.3199 8.23692 67.5594 10.1909 67.0487C13.1219 65.0609 13.5554 64.7606 13.5554 64.7606C14.194 63.8163 13.7658 62.5264 12.6916 62.15Z" fill="#C93A20"/>
<path d="M15.852 64.033C15.6458 63.9611 15.4238 63.9833 15.2387 64.0996C13.7183 65.0523 11.6543 66.5643 11.4714 66.7303C11.1256 67.0465 11.3984 69.4424 13.3524 68.9317C16.2834 66.9439 16.7169 66.6436 16.7169 66.6436C17.3545 65.6994 16.9262 64.4094 15.852 64.033Z" fill="#297D81"/>
<path d="M35.6254 91.2682C32.6628 91.2682 29.7022 90.5333 27.0186 89.0678C19.1974 84.794 8.26233 77.6844 7.03051 76.2707C5.69931 74.746 7.02414 73.3641 8.0889 72.2539C8.67255 71.6448 9.27526 71.0168 9.37254 70.4701C9.71512 68.5531 11.8785 67.5719 11.9715 67.5317L12.275 68.2137C12.2559 68.2222 10.3802 69.0776 10.1084 70.6012C9.97098 71.3689 9.3186 72.0498 8.62815 72.7709C7.43546 74.0143 6.77039 74.838 7.59407 75.7791C8.65459 76.9961 19.2365 83.9619 27.3771 88.4112C32.3963 91.154 38.4243 91.2259 43.5017 88.6079C48.0335 86.2701 51.6031 84.204 54.1143 82.4668C56.1053 81.0891 58.8343 78.8951 60.1179 77.3365C60.7512 76.5668 61.4777 75.5486 62.1174 74.6498C62.958 73.4719 63.4465 72.7931 63.7309 72.5637C64.6191 71.8383 65.7927 70.9491 65.8054 70.9396L66.0898 71.2124L66.2505 71.5402C66.2505 71.5402 65.0896 72.4188 64.2035 73.1431C63.9836 73.3218 63.3449 74.2174 62.7275 75.0844C62.0793 75.9926 61.3455 77.0225 60.6952 77.8123C59.3661 79.4269 56.5726 81.6759 54.5404 83.0832C52.0038 84.8384 48.4046 86.9214 43.8453 89.274C41.2611 90.6042 38.4433 91.2682 35.6254 91.2682Z" fill="#DBDBDB"/>
<path d="M43.4097 100C40.2408 100 36.8563 99.0653 33.46 97.2096C25.2043 92.6969 1.96369 78.226 0.783691 77.0079C0.202149 76.4084 -0.0579456 75.7644 0.0107821 75.0909C0.176786 73.4647 2.21748 72.0785 4.01815 70.8541C5.06281 70.1446 6.24703 69.3389 6.32739 68.8832C6.66574 66.9895 8.94328 65.672 9.04056 65.6171L9.40957 66.2673C9.38948 66.279 7.3382 67.4674 7.06329 69.0154C6.92583 69.7809 5.82832 70.5274 4.43685 71.4727C2.854 72.548 0.884156 73.8887 0.754102 75.1671C0.707579 75.6164 0.893668 76.0478 1.31872 76.4877C2.48075 77.6857 25.5923 92.0572 33.8185 96.553C39.5313 99.6743 45.1871 100.105 49.7348 97.7573C54.2581 95.4259 57.8277 93.3598 60.3484 91.6162C62.3415 90.2375 65.0706 88.0434 66.351 86.486C66.9854 85.7152 67.715 84.6927 68.3578 83.7919C69.1942 82.6192 69.6817 81.9447 69.964 81.7131C70.8532 80.9878 71.8979 80.1958 71.9116 80.1873L72.3092 80.3396L72.3568 80.7869C72.3451 80.7953 71.3131 81.5756 70.4377 82.2915C70.2198 82.4691 69.5823 83.3626 68.968 84.2254C68.3177 85.1368 67.5818 86.1688 66.9294 86.9607C65.6035 88.5732 62.8099 90.8222 60.7756 92.2316C58.2295 93.9932 54.6303 96.0761 50.0795 98.4224C48.0324 99.4755 45.7824 100 43.4097 100Z" fill="#DBDBDB"/>
<path d="M48.54 53.8319L49.0168 53.7441L49.4112 57.6066H48.8043L47.2024 54.6038L48.54 53.8319Z" fill="#B8B6B7"/>
<path d="M51.5799 52.0777L52.0589 51.9952L52.4511 55.8514H51.8453L50.2423 52.8496L51.5799 52.0777Z" fill="#B8B6B7"/>
<path d="M54.6198 50.3225L55.0977 50.2368L55.4911 54.0972H54.8852L53.2822 51.0943L54.6198 50.3225Z" fill="#B8B6B7"/>
<path d="M57.6607 48.5673L58.1386 48.4838L58.5319 52.342H57.9261L56.3231 49.3392L57.6607 48.5673Z" fill="#B8B6B7"/>
<path d="M50.4337 57.3411L50.9106 57.2512L51.305 61.1158H50.6991L49.0962 58.113L50.4337 57.3411Z" fill="#B8B6B7"/>
<path d="M53.4735 55.5869L53.9504 55.4928L54.3448 59.3606H53.7389L52.136 56.3588L53.4735 55.5869Z" fill="#B8B6B7"/>
<path d="M56.5145 53.8317L56.9924 53.7493L57.3858 57.6065H56.7789L55.177 54.6036L56.5145 53.8317Z" fill="#B8B6B7"/>
<path d="M59.5543 52.0776L60.0322 51.9888L60.4256 55.8513H59.8197L58.2168 52.8495L59.5543 52.0776Z" fill="#B8B6B7"/>
<path d="M49.4367 53.4143L51.0396 56.4161L49.7021 57.189L48.0991 54.1862L49.4367 53.4143Z" fill="#EDF4ED"/>
<path d="M51.0395 56.4163L50.7488 56.835L49.4113 57.6068L49.702 57.1892L51.0395 56.4163Z" fill="#BEBABA"/>
<path d="M49.7021 57.189L49.4113 57.6067L47.8083 54.6038L48.0991 54.1862L49.7021 57.189Z" fill="#D6D4D5"/>
<path d="M52.4777 51.6592L54.0806 54.662L52.742 55.4339L51.1401 52.431L52.4777 51.6592Z" fill="#EDF4ED"/>
<path d="M54.0805 54.6621L53.7887 55.0798L52.4512 55.8516L52.7419 55.434L54.0805 54.6621Z" fill="#BEBABA"/>
<path d="M52.742 55.4339L52.4512 55.8516L50.8483 52.8497L51.1401 52.431L52.742 55.4339Z" fill="#D6D4D5"/>
<path d="M55.5174 49.9048L57.1203 52.9066L55.7828 53.6785L54.1798 50.6767L55.5174 49.9048Z" fill="#EDF4ED"/>
<path d="M57.1203 52.9067L56.8296 53.3254L55.491 54.0973L55.7828 53.6786L57.1203 52.9067Z" fill="#BEBABA"/>
<path d="M55.7829 53.6784L55.491 54.0972L53.8881 51.0943L54.1799 50.6766L55.7829 53.6784Z" fill="#D6D4D5"/>
<path d="M58.5573 48.1498L60.1602 51.1526L58.8227 51.9245L57.2197 48.9216L58.5573 48.1498Z" fill="#EDF4ED"/>
<path d="M60.1602 51.1527L59.8694 51.5704L58.5319 52.3422L58.8227 51.9246L60.1602 51.1527Z" fill="#BEBABA"/>
<path d="M58.8227 51.9245L58.5319 52.3422L56.929 49.3393L57.2197 48.9216L58.8227 51.9245Z" fill="#D6D4D5"/>
<path d="M51.3314 56.9233L52.9333 59.9252L51.5957 60.6981L49.9928 57.6952L51.3314 56.9233Z" fill="#EDF4ED"/>
<path d="M52.9333 59.9253L52.6425 60.344L51.3049 61.1159L51.5957 60.6982L52.9333 59.9253Z" fill="#BEBABA"/>
<path d="M51.5957 60.6981L51.305 61.1157L49.702 58.1128L49.9928 57.6952L51.5957 60.6981Z" fill="#D6D4D5"/>
<path d="M54.3713 55.1683L55.9743 58.1712L54.6367 58.9431L53.0338 55.9413L54.3713 55.1683Z" fill="#EDF4ED"/>
<path d="M55.9742 58.1713L55.6824 58.5889L54.3448 59.3608L54.6367 58.9431L55.9742 58.1713Z" fill="#BEBABA"/>
<path d="M54.6367 58.943L54.3449 59.3606L52.7419 56.3588L53.0338 55.9412L54.6367 58.943Z" fill="#D6D4D5"/>
<path d="M57.4113 53.4139L59.0142 56.4158L57.6767 57.1887L56.0737 54.1858L57.4113 53.4139Z" fill="#EDF4ED"/>
<path d="M59.0141 56.4159L58.7233 56.8346L57.3857 57.6065L57.6765 57.1888L59.0141 56.4159Z" fill="#BEBABA"/>
<path d="M57.6765 57.1887L57.3858 57.6063L55.7828 54.6034L56.0736 54.1858L57.6765 57.1887Z" fill="#D6D4D5"/>
<path d="M60.452 51.6588L62.0539 54.6617L60.7163 55.4336L59.1134 52.4307L60.452 51.6588Z" fill="#EDF4ED"/>
<path d="M62.0539 54.6619L61.7631 55.0795L60.4255 55.8514L60.7163 55.4337L62.0539 54.6619Z" fill="#BEBABA"/>
<path d="M60.7163 55.4335L60.4256 55.8512L58.8226 52.8494L59.1134 52.4307L60.7163 55.4335Z" fill="#D6D4D5"/>
<path d="M34.6696 79.6575L19.7018 71.0148V70.2048L34.6696 78.8476V79.6575Z" fill="#676063"/>
<path d="M34.6696 78.1931L19.7018 69.5514V68.7415L34.6696 77.3832V78.1931Z" fill="#676063"/>
<path d="M34.6696 76.7296L19.7018 68.0879V67.278L34.6696 75.9197V76.7296Z" fill="#676063"/>
<defs>
<linearGradient id="paint0_linear_62_4" x1="61.683" y1="72.6744" x2="72.9822" y2="72.6744" gradientUnits="userSpaceOnUse">
<stop offset="0.0896" stop-color="#A3D4D1"/>
<stop offset="0.4867" stop-color="#B5E4EB"/>
<stop offset="0.7048" stop-color="#C2D9FC"/>
<stop offset="0.8431" stop-color="#C4DBFF"/>
<stop offset="0.9515" stop-color="#C3D9FD"/>
<stop offset="0.9844" stop-color="#BFD4F8"/>
<stop offset="0.9907" stop-color="#C3DAFD"/>
</linearGradient>
<linearGradient id="paint1_linear_62_4" x1="67.7244" y1="81.8529" x2="79.0237" y2="81.8529" gradientUnits="userSpaceOnUse">
<stop offset="0.0896" stop-color="#A3D4D1"/>
<stop offset="0.4867" stop-color="#B5E4EB"/>
<stop offset="0.7048" stop-color="#C2D9FC"/>
<stop offset="0.8431" stop-color="#C4DBFF"/>
<stop offset="0.9515" stop-color="#C3D9FD"/>
<stop offset="0.9844" stop-color="#BFD4F8"/>
<stop offset="0.9907" stop-color="#C3DAFD"/>
</linearGradient>
</defs>
</svg>
