<svg width="52" height="100" viewBox="0 0 52 100" fill="none" xmlns="http://www.w3.org/2000/svg">
<path d="M27.406 98.159C27.406 97.1192 26.6717 95.8525 25.7655 95.3295C25.2728 95.0451 24.8307 95.0397 24.5299 95.2611L23.3394 95.9093L25.7041 99.8835L26.9164 99.2167C26.9211 99.2144 26.9258 99.2113 26.9304 99.2089L26.9343 99.2066C27.225 99.0364 27.406 98.6743 27.406 98.159Z" fill="#393339"/>
<path d="M22.8894 96.9453C22.8894 97.9851 23.6238 99.2518 24.5299 99.7748C25.436 100.298 26.1704 99.8789 26.1704 98.8391C26.1704 97.7993 25.436 96.5326 24.5299 96.0096C23.6238 95.4866 22.8894 95.9055 22.8894 96.9453Z" fill="#110910"/>
<path d="M23.5156 97.3065C23.5156 97.9492 23.9695 98.7318 24.529 99.0551C25.0885 99.3784 25.5424 99.1196 25.5424 98.4769C25.5424 97.8342 25.0885 97.0516 24.529 96.7284C23.9695 96.4059 23.5156 96.6646 23.5156 97.3065Z" fill="#858184"/>
<path d="M51.6133 84.1949C51.6133 83.1551 50.8789 81.8884 49.9728 81.3654C49.4801 81.081 49.0379 81.0756 48.7372 81.297V81.2962L47.5466 81.9452L49.9114 85.9193L51.1237 85.2526C51.1284 85.2502 51.133 85.2472 51.1377 85.2448L51.1416 85.2425C51.4322 85.0731 51.6133 84.7102 51.6133 84.1949Z" fill="#393339"/>
<path d="M47.0967 82.9809C47.0967 84.0207 47.8311 85.2874 48.7372 85.8104C49.6433 86.3334 50.3777 85.9146 50.3777 84.8748C50.3777 83.835 49.6433 82.5683 48.7372 82.0453C47.8311 81.5223 47.0967 81.9412 47.0967 82.9809Z" fill="#110910"/>
<path d="M47.723 83.3424C47.723 83.9851 48.1769 84.7677 48.7364 85.091C49.2959 85.4142 49.7497 85.1554 49.7497 84.5128C49.7497 83.8701 49.2959 83.0875 48.7364 82.7642C48.1769 82.4417 47.723 82.7005 47.723 83.3424Z" fill="#858184"/>
<path d="M10.9411 88.6611C10.9411 87.6213 10.2067 86.3546 9.30056 85.8316C8.80787 85.5472 8.36569 85.5417 8.06494 85.7632V85.7624L6.87439 86.4113L9.23917 90.3855L10.4515 89.7195C10.4561 89.7172 10.4608 89.7149 10.4655 89.7118L10.4686 89.7102C10.7608 89.5385 10.9411 89.1763 10.9411 88.6611Z" fill="#393339"/>
<path d="M6.42444 87.4464C6.42444 88.4861 7.15882 89.7529 8.06494 90.2759C8.97107 90.7989 9.70544 90.38 9.70544 89.341C9.70544 88.302 8.97107 87.0345 8.06494 86.5115C7.15882 85.9885 6.42444 86.4073 6.42444 87.4464Z" fill="#110910"/>
<path d="M7.05164 87.8085C7.05164 88.4512 7.50548 89.2337 8.065 89.557C8.62453 89.8803 9.07837 89.6215 9.07837 88.9788C9.07837 88.3362 8.62453 87.5536 8.065 87.2303C7.50548 86.907 7.05164 87.1658 7.05164 87.8085Z" fill="#858184"/>
<path d="M24.7591 91.6242L5.53625 80.5254L31.8403 65.3435L51.0631 76.4416L24.7591 91.6242Z" fill="#ADA9AB"/>
<path d="M46.3731 76.2402H37.2831L24.4715 83.7713L24.4086 69.6323L29.6767 66.6L46.3731 76.2402Z" fill="#666666"/>
<path d="M51.063 76.4415V80.8665L24.759 96.0483V91.6241L51.063 76.4415Z" fill="#D6D6D6"/>
<path d="M5.53625 80.5254V84.9503L24.7591 96.0484V91.6242L5.53625 80.5254Z" fill="#767275"/>
<path d="M46.3732 44.9099L29.6768 35.2705L31.0694 34.4669L47.7658 44.1063L46.3732 44.9099Z" fill="#B4B0B1"/>
<path d="M47.7658 44.1064V75.4361L46.3732 76.2404V44.91L47.7658 44.1064Z" fill="#D6D6D6"/>
<path d="M29.6768 35.2705V66.6002L46.3732 76.2403V44.9099L29.6768 35.2705Z" fill="#666666"/>
<path d="M30.6552 67.1766L45.0195 75.4693V45.6371L30.6552 37.3445V67.1766Z" fill="#B28A00"/>
<path d="M24.2447 73.9852L5.61475 63.229L27.2879 50.7197L45.9178 61.4759L24.2447 73.9852Z" fill="#959092"/>
<path d="M46.1454 61.4524L37.5108 61.6731L24.6992 69.2042L24.6362 55.0661L29.9043 52.033L46.1454 61.4524Z" fill="#666666"/>
<path d="M25.7445 70.7203H23.3277L10.7593 63.4644L14.1258 61.8472L25.7445 70.7203Z" fill="#666666"/>
<path d="M25.7444 70.7205L14.069 63.9797V58.3285L23.7667 63.9276L25.7444 67.5972V70.7205Z" fill="#A1A1A1"/>
<path d="M23.7667 63.9276L14.069 58.3285L31.3467 48.3564L41.0444 53.9548L23.7667 63.9276Z" fill="#CDCDCD"/>
<path d="M22.1993 63.0222L12.5016 57.4239L29.7793 47.451L39.477 53.0502L22.1993 63.0222Z" fill="#666666"/>
<path d="M23.0937 58.6431H19.7435L17.1448 60.1041L14.069 58.3284L22.2653 53.598L23.0937 58.6431Z" fill="#666666"/>
<path d="M41.0445 53.9547L43.0222 57.625L25.7445 67.5971L23.7667 63.9275L41.0445 53.9547Z" fill="#E6E5E6"/>
<path d="M39.8306 55.3031L41.2069 57.8583L35.5875 61.102L34.2104 58.5468L39.8306 55.3031Z" fill="#75B863"/>
<path d="M27.2669 62.6984L27.8956 63.8648L25.3295 65.346L24.7008 64.1796L27.2669 62.6984Z" fill="#DEB3B8"/>
<path d="M39.8305 55.3031L39.4101 55.5456L40.7273 57.9888L35.5269 60.9901L35.5875 61.102L41.2068 57.8583L39.8305 55.3031Z" fill="#549042"/>
<path d="M43.0222 57.6252V60.7485L25.7445 70.7205V67.5973L43.0222 57.6252Z" fill="#D6D6D6"/>
<path d="M30.1041 60.9427L30.2711 60.9116L30.4095 62.263H30.1973L29.6362 61.2124L30.1041 60.9427Z" fill="#B8B6B7"/>
<path d="M31.168 60.3287L31.3359 60.2999L31.4727 61.649H31.2613L30.7002 60.5991L31.168 60.3287Z" fill="#B8B6B7"/>
<path d="M32.2319 59.7149L32.3989 59.6846L32.5365 61.0352H32.3243L31.764 59.9845L32.2319 59.7149Z" fill="#B8B6B7"/>
<path d="M33.2958 59.1009L33.4628 59.0714L33.6004 60.4213H33.3882L32.8271 59.3706L33.2958 59.1009Z" fill="#B8B6B7"/>
<path d="M30.767 62.1704L30.9341 62.1385L31.0717 63.4907H30.8595L30.2992 62.4408L30.767 62.1704Z" fill="#B8B6B7"/>
<path d="M31.8309 61.5566L31.9972 61.5239L32.1355 62.8769H31.9233L31.363 61.827L31.8309 61.5566Z" fill="#B8B6B7"/>
<path d="M32.8948 60.9427L33.0618 60.9139L33.1994 62.263H32.9872L32.4261 61.2124L32.8948 60.9427Z" fill="#B8B6B7"/>
<path d="M33.9586 60.3288L34.1249 60.2977L34.2632 61.6491H34.0511L33.49 60.5993L33.9586 60.3288Z" fill="#B8B6B7"/>
<path d="M30.418 60.7965L30.9791 61.8472L30.5113 62.1168L29.9502 61.0662L30.418 60.7965Z" fill="#FFB489"/>
<path d="M30.979 61.8472L30.8772 61.9933L30.4094 62.2629L30.5112 62.1168L30.979 61.8472Z" fill="#F79359"/>
<path d="M30.5113 62.1167L30.4095 62.2628L29.8484 61.2121L29.9502 61.066L30.5113 62.1167Z" fill="#B86434"/>
<path d="M31.4819 60.1827L32.0429 61.2326L31.5743 61.5031L31.014 60.4524L31.4819 60.1827Z" fill="#FFB489"/>
<path d="M32.0429 61.2327L31.9411 61.3795L31.4725 61.6492L31.5743 61.5031L32.0429 61.2327Z" fill="#F79359"/>
<path d="M31.5745 61.5029L31.4727 61.649L30.9124 60.5992L31.0142 60.4523L31.5745 61.5029Z" fill="#B86434"/>
<path d="M32.5458 59.5687L33.1069 60.6186L32.6383 60.8891L32.078 59.8384L32.5458 59.5687Z" fill="#A6A9A6"/>
<path d="M33.1069 60.6187L33.0043 60.7655L32.5365 61.0352L32.6383 60.8891L33.1069 60.6187Z" fill="#636161"/>
<path d="M32.6383 60.8891L32.5365 61.0351L31.9755 59.9845L32.078 59.8384L32.6383 60.8891Z" fill="#7B7A7B"/>
<path d="M33.6097 58.9548L34.17 60.0047L33.7022 60.2752L33.1411 59.2245L33.6097 58.9548Z" fill="#EDF4ED"/>
<path d="M34.17 60.0048L34.0682 60.1516L33.6003 60.4213L33.7021 60.2752L34.17 60.0048Z" fill="#BEBABA"/>
<path d="M33.7022 60.275L33.6004 60.4211L33.0393 59.3705L33.1411 59.2244L33.7022 60.275Z" fill="#D6D4D5"/>
<path d="M31.1377 62.0764L31.6785 63.0898L31.227 63.3501L30.6862 62.3367L31.1377 62.0764Z" fill="#FFB489"/>
<path d="M31.6786 63.0897L31.5799 63.2304L31.1292 63.4907L31.2271 63.3501L31.6786 63.0897Z" fill="#F79359"/>
<path d="M31.227 63.35L31.1291 63.4907L30.5883 62.4781L30.6862 62.3367L31.227 63.35Z" fill="#B86434"/>
<path d="M32.1635 61.4843L32.7044 62.4976L32.2529 62.758L31.712 61.7446L32.1635 61.4843Z" fill="#FFB489"/>
<path d="M32.7043 62.4976L32.6064 62.6382L32.1549 62.8986L32.2528 62.7579L32.7043 62.4976Z" fill="#F79359"/>
<path d="M32.2529 62.7579L32.155 62.8985L31.6141 61.8859L31.7121 61.7445L32.2529 62.7579Z" fill="#B86434"/>
<path d="M33.1893 60.8921L33.7302 61.9055L33.2787 62.1658L32.7378 61.1524L33.1893 60.8921Z" fill="#A6A9A6"/>
<path d="M33.7302 61.9054L33.6323 62.0461L33.1808 62.3064L33.2787 62.1657L33.7302 61.9054Z" fill="#636161"/>
<path d="M33.2787 62.1657L33.1808 62.3064L32.6399 61.2938L32.7378 61.1523L33.2787 62.1657Z" fill="#7B7A7B"/>
<path d="M34.2151 60.2999L34.7559 61.3133L34.3044 61.5736L33.7635 60.5603L34.2151 60.2999Z" fill="#EDF4ED"/>
<path d="M34.756 61.3132L34.6581 61.4539L34.2065 61.715L34.3045 61.5736L34.756 61.3132Z" fill="#BEBABA"/>
<path d="M34.3044 61.5737L34.2065 61.7151L33.6656 60.7017L33.7636 60.5603L34.3044 61.5737Z" fill="#D6D4D5"/>
<path d="M45.9178 61.4758V62.7822L24.2446 75.2915V73.9852L45.9178 61.4758Z" fill="#B8B6B7"/>
<path d="M24.1063 57.4604L8.00281 48.1629L29.6759 35.6536L45.7787 44.951L24.1063 57.4604Z" fill="#B4B0B1"/>
<path d="M45.7787 44.951V46.2574L24.1063 58.7667V57.4604L45.7787 44.951Z" fill="#D6D6D6"/>
<path d="M8.00281 48.1627V49.4691L24.1063 58.7665V57.4602L8.00281 48.1627Z" fill="#767275"/>
<path d="M15.2456 21.6366L13.2523 20.4857L20.248 16.4478L22.2413 17.5987L15.2456 21.6366Z" fill="#959092"/>
<path d="M22.2413 17.5988V32.8342L15.2456 36.8721V21.6367L22.2413 17.5988Z" fill="#B8B6B7"/>
<path d="M13.2522 20.4857V35.7212L15.2455 36.8721V21.6366L13.2522 20.4857Z" fill="#767275"/>
<path d="M28.5701 18.9431L11.0142 29.0784V11.3724L28.5701 1.23645V18.9431Z" fill="#D7D6D7"/>
<path d="M28.0859 18.1372L11.4983 27.7137V11.6552L28.0859 2.078V18.1372Z" fill="#4A3D3C"/>
<path d="M14.892 14.4926C15.7157 16.6888 16.5402 18.8841 17.364 21.0803C19.1607 18.0052 20.4227 17.277 22.2202 18.2772C23.044 15.1299 23.8685 11.9825 24.6922 8.83518C21.97 6.86595 17.6694 9.87108 14.892 14.4926Z" fill="#BFBEBF"/>
<path d="M8.87244 10.136V27.8427L11.0142 29.0783V11.3724L8.87244 10.136Z" fill="#939093"/>
<path d="M26.4276 0L8.87244 10.136L11.0142 11.3724L28.5701 1.2364L26.4276 0Z" fill="#DEDDDE"/>
<path d="M15.1266 35.6537L9.94324 32.6618L30.7297 20.6638L35.9131 23.6565L15.1266 35.6537Z" fill="#CDCDCD"/>
<path d="M35.9131 23.6566L42.3967 44.2674L21.6102 56.2654L15.1267 35.6538L35.9131 23.6566Z" fill="#E6E5E6"/>
<path d="M34.5477 26.7681L37.4868 35.8674L20.6675 45.5744L17.7292 36.4759L34.5477 26.7681Z" fill="#4A3D3C"/>
<path d="M26.5302 33.3534L27.2708 35.6482L19.9698 39.8626L19.2284 37.5677L26.5302 33.3534Z" fill="#A49D9C"/>
<path d="M33.602 29.0132L33.8654 29.8292L31.2691 31.3282L31.0056 30.5123L33.602 29.0132Z" fill="#A49D9C"/>
<path d="M34.4156 31.2902L34.679 32.1061L32.0827 33.6044L31.8192 32.7885L34.4156 31.2902Z" fill="#A49D9C"/>
<path d="M35.2293 33.5663L35.4927 34.3823L32.8964 35.8806L32.6329 35.0654L35.2293 33.5663Z" fill="#A49D9C"/>
<path d="M27.5964 36.4167L28.3378 38.7116L21.0359 42.9259L20.2946 40.6311L27.5964 36.4167Z" fill="#A49D9C"/>
<path d="M34.5477 26.7681L33.8778 27.1551L36.6374 35.6964L20.488 45.0172L20.6676 45.5744L37.4868 35.8666L34.5477 26.7681Z" fill="#2D272D"/>
<path d="M9.94336 32.6619V49.5293L21.6103 56.2654L15.1268 35.6538L9.94336 32.6619Z" fill="#A1A1A1"/>
<path d="M23.016 58.3828L6.31958 48.7434L7.71218 47.9398L24.4086 57.5792L23.016 58.3828Z" fill="#B4B0B1"/>
<path d="M24.4086 57.5792V88.9089L23.016 89.7124V58.3828L24.4086 57.5792Z" fill="#D6D6D6"/>
<path d="M6.31958 48.7433V80.0729L23.016 89.7124V58.3827L6.31958 48.7433Z" fill="#515151"/>
<path d="M7.48523 80.7468L21.8495 89.0395V59.2073L7.48523 50.9147V80.7468Z" fill="#B28A00"/>
<path d="M8.87239 80.7468V51.7151L7.48523 50.9147V80.7468L21.8495 89.0395V88.239L8.87239 80.7468Z" fill="#959092"/>
<path d="M7.48523 80.7468L8.87239 80.1554V51.7151L7.48523 50.9147V80.7468Z" fill="#666666"/>
<path d="M8.33622 73.3579C8.08054 73.3579 7.83419 73.3089 7.59717 73.2125C3.97035 71.7376 4.37678 59.0091 4.43507 57.5621L5.21219 57.594C5.05987 61.3723 5.24483 71.4158 7.89015 72.4929C8.65561 72.803 9.66198 72.2777 10.879 70.9247C13.358 68.1683 14.7265 55.4126 14.7405 55.2836L15.5129 55.3652C15.457 55.8998 14.104 68.5016 11.4571 71.443C10.3117 72.7175 9.26643 73.3579 8.33622 73.3579Z" fill="#2A2225"/>
<path d="M14.9511 55.3068L14.7397 55.2843C14.7257 55.4133 13.358 68.169 10.8782 70.9254C9.66125 72.2776 8.65565 72.8037 7.88941 72.4937C5.24409 71.4166 5.05836 61.3731 5.21145 57.5947L4.82988 57.5791C4.76383 59.6035 4.51204 71.4818 7.72466 72.897C7.94148 72.9926 8.16607 73.0407 8.39998 73.0407C9.24937 73.0407 10.2052 72.4074 11.2512 71.1485C13.6145 68.305 14.8478 56.349 14.9511 55.3068Z" fill="#585255"/>
<path d="M12.6538 75.8508C12.3982 75.8508 12.1518 75.8018 11.9148 75.7055C8.28798 74.2305 8.69441 61.502 8.75269 60.055L9.52981 60.0869C9.3775 63.8652 9.56245 73.9088 12.2078 74.9858C12.9732 75.2959 13.9796 74.7706 15.1966 73.4176C17.6756 70.6612 19.0441 57.9055 19.0581 57.7765L19.8306 57.8581C19.7746 58.3927 18.4216 70.9946 15.7748 73.936C14.6293 75.2104 13.5841 75.8508 12.6538 75.8508Z" fill="#2A2225"/>
<path d="M19.2687 57.7999L19.0573 57.7773C19.0433 57.9063 17.6756 70.662 15.1958 73.4185C13.9796 74.7707 12.9732 75.2968 12.207 74.9867C9.56167 73.9096 9.37593 63.8669 9.52903 60.0877L9.14746 60.0722C9.0814 62.0966 8.82884 73.9749 12.0422 75.39C12.2591 75.4856 12.4836 75.533 12.7176 75.533C13.5669 75.533 14.5228 74.8997 15.5688 73.6407C17.932 70.798 19.1653 58.842 19.2687 57.7999Z" fill="#585255"/>
<path d="M16.1035 62.1107L0 52.8132L6.23251 49.2167L22.336 58.5134L16.1035 62.1107Z" fill="#B4B0B1"/>
<path d="M21.4944 55.8967L9.72797 54.5507L3.12244 51.0117L6.23248 49.2166L6.31951 49.2663V48.7433L7.71211 47.9398L8.05094 48.1348L9.94323 47.043V49.215L21.4944 55.8967Z" fill="#666666"/>
<path d="M22.336 58.5133V59.8196L16.1035 63.4169V62.1106L22.336 58.5133Z" fill="#D6D6D6"/>
<path d="M0 52.8131V54.1195L16.1035 63.4169V62.1106L0 52.8131Z" fill="#767275"/>
<path d="M5.34579 55.7607C5.34579 55.7607 4.38138 56.3055 3.81486 56.1672C3.4838 56.0871 2.93982 56.0459 2.93982 56.0459V57.3531L3.90345 57.9118L5.34656 57.0679L5.34579 55.7607Z" fill="#635E61"/>
<path d="M4.86557 55.4832L4.39308 55.2439L3.35251 55.8151L2.93909 56.0459L3.90272 56.6046L5.34583 55.7607L4.86557 55.4832Z" fill="#666666"/>
<path d="M6.31879 58.0618V51.4353H3.88562V58.0579C3.88485 58.239 4.00452 58.4201 4.24466 58.5592C4.72181 58.8343 5.49194 58.8358 5.96598 58.5623C6.20456 58.424 6.3219 58.2429 6.31879 58.0618Z" fill="url(#paint0_linear_62_1488)"/>
<path d="M6.79903 56.7394C6.79903 56.7394 5.83463 57.2841 5.2681 57.1466C4.93627 57.0658 4.39307 57.0254 4.39307 57.0254V58.3325L5.35592 58.8912L6.79903 58.0473V56.7394Z" fill="#635E61"/>
<path d="M5.96515 51.9453C5.4911 52.2188 4.7202 52.2173 4.24382 51.9422C3.76667 51.6671 3.76434 51.2218 4.23838 50.9482C4.71243 50.6747 5.48333 50.6762 5.95971 50.9513C6.43686 51.2264 6.43919 51.6717 5.96515 51.9453Z" fill="#F0F7F7"/>
<path d="M5.86966 51.8901C5.42048 52.1497 4.68999 52.1482 4.23848 51.887C3.78619 51.6259 3.78386 51.2039 4.23304 50.9452C4.68222 50.6856 5.41271 50.6872 5.86422 50.9483C6.3165 51.2086 6.31883 51.6306 5.86966 51.8901Z" fill="#F2F3F2"/>
<path d="M22.6383 10.7041C22.8792 10.537 23.1201 10.37 23.361 10.2029C22.6655 10.2037 21.97 10.2044 21.2753 10.2052C21.7726 10.0381 22.284 9.86405 22.6826 9.52289C20.4803 8.99134 18.0012 10.9264 16.8177 12.605C16.4695 13.0984 16.1983 13.6463 16.0165 14.2221C16.2955 14.0419 16.5612 13.8538 16.8247 13.6564C17.078 13.466 17.385 13.379 17.6819 13.2655C17.4324 13.5655 17.1581 13.8437 16.862 14.0978C16.9529 14.1157 17.0438 14.1336 17.1348 14.1507C16.9397 14.355 16.7431 14.5579 16.5434 14.7584C16.8457 14.683 17.1208 14.5586 17.4044 14.4359C17.2972 14.7281 17.1651 15.0467 17.019 15.3249C17.1254 15.2868 17.5513 15.3225 17.6072 15.2573C17.4557 15.4337 17.2777 15.5868 17.0804 15.7096C17.4386 15.7111 17.7961 15.7134 18.1543 15.715C18.0549 15.8603 17.9243 15.9839 17.7751 16.0771C18.2872 16.1346 17.9608 16.1735 17.8505 16.461C18.0183 16.5046 18.2282 16.4836 18.4061 16.4867C18.4054 16.7074 18.3004 16.9257 18.1279 17.0641C18.2872 17.1022 18.4496 17.1278 18.6128 17.1402C18.7714 17.1527 18.1613 18.2647 18.8398 18.0673C18.9843 18.0254 19.0838 17.9034 19.2042 17.821C19.3861 17.6959 19.5819 17.636 19.7847 17.5552C20.2565 17.3672 20.7476 17.3236 21.2574 17.2747C21.3382 17.0019 20.5999 16.8659 21.2178 16.6514C21.3149 16.6172 21.4221 16.531 21.3903 16.4331C21.374 16.3833 21.3265 16.3522 21.2823 16.325C21.0375 16.1727 20.7934 16.0204 20.5494 15.8681C20.5922 15.8945 21.3118 15.5332 21.3639 15.4772C21.5558 15.2689 21.2861 15.2208 21.2317 14.962C21.1393 14.5198 21.7695 14.1949 22.1247 14.1165C21.862 14.1398 21.433 14.2641 21.3747 13.8654C21.3475 13.6766 21.5138 13.515 21.6825 13.4264C21.8511 13.3378 22.0462 13.2787 22.1674 13.1311C21.8527 13.1194 21.5403 13.0557 21.2457 12.9438C21.5037 12.5249 22.05 12.4091 22.5357 12.3322C22.5264 12.3337 22.3088 12.183 22.2537 12.1721C22.1208 12.1457 21.9358 12.1845 21.7944 12.1752C21.8348 12.0027 21.942 11.8465 22.0881 11.7462C22.1309 11.7167 22.1775 11.6918 22.2125 11.653C22.3562 11.4937 22.2226 11.3421 22.2451 11.1735C22.2777 10.9598 22.4759 10.8168 22.6383 10.7041Z" fill="#4A3D3C"/>
<path d="M22.0726 46.5184L22.4216 46.4539L22.5436 49.4854H22.1006L21.0942 47.0833L22.0726 46.5184Z" fill="#B8B6B7"/>
<path d="M24.2951 45.2354L24.6456 45.1755L24.7668 48.2024H24.3239L23.3175 45.8003L24.2951 45.2354Z" fill="#B8B6B7"/>
<path d="M26.5185 43.9525L26.8682 43.8895L26.9902 46.9187H26.5465L25.5409 44.5167L26.5185 43.9525Z" fill="#B8B6B7"/>
<path d="M28.7419 42.6685L29.0924 42.6071L29.2136 45.6355H28.7699L27.7643 43.2334L28.7419 42.6685Z" fill="#B8B6B7"/>
<path d="M22.7285 46.2131L23.7349 48.6152L22.7565 49.1794L21.7501 46.7773L22.7285 46.2131Z" fill="#FFB489"/>
<path d="M23.7349 48.6152L23.522 48.9206L22.5436 49.4856L22.7565 49.1794L23.7349 48.6152Z" fill="#F79359"/>
<path d="M22.7565 49.1794L22.5436 49.4856L21.5372 47.0835L21.7502 46.7773L22.7565 49.1794Z" fill="#B86434"/>
<path d="M24.9518 44.9299L25.9582 47.332L24.9798 47.8962L23.9734 45.4941L24.9518 44.9299Z" fill="#FFB489"/>
<path d="M25.9582 47.332L25.7452 47.6374L24.7668 48.2024L24.9798 47.8962L25.9582 47.332Z" fill="#F79359"/>
<path d="M24.9798 47.8962L24.7669 48.2024L23.7605 45.8003L23.9734 45.4941L24.9798 47.8962Z" fill="#B86434"/>
<path d="M27.1752 43.6462L28.1815 46.0483L27.2031 46.6133L26.1968 44.2112L27.1752 43.6462Z" fill="#EDF4ED"/>
<path d="M28.1816 46.0483L27.9686 46.3545L26.9902 46.9187L27.2032 46.6133L28.1816 46.0483Z" fill="#BEBABA"/>
<path d="M27.2032 46.6133L26.9903 46.9187L25.9839 44.5166L26.1968 44.2112L27.2032 46.6133Z" fill="#D6D4D5"/>
<path d="M29.3986 42.363L30.4049 44.7651L29.4265 45.3301L28.4202 42.928L29.3986 42.363Z" fill="#EDF4ED"/>
<path d="M30.4049 44.7651L30.192 45.0705L29.2136 45.6355L29.4265 45.3301L30.4049 44.7651Z" fill="#BEBABA"/>
<path d="M29.4265 45.3302L29.2135 45.6356L28.2072 43.2335L28.4201 42.9281L29.4265 45.3302Z" fill="#D6D4D5"/>
<path d="M23.2981 49.7396L23.647 49.675L23.1877 51.3171H22.744L22.3197 50.3037L23.2981 49.7396Z" fill="#B8B6B7"/>
<path d="M25.5215 48.4565L25.872 48.3966L25.4111 50.034H24.9674L24.5431 49.0206L25.5215 48.4565Z" fill="#B8B6B7"/>
<path d="M27.7448 47.1727L28.0945 47.1097L27.6344 48.751H27.1907L26.7664 47.7377L27.7448 47.1727Z" fill="#B8B6B7"/>
<path d="M29.9681 45.8896L30.3178 45.8282L29.857 47.4672H29.4141L28.9897 46.4538L29.9681 45.8896Z" fill="#B8B6B7"/>
<path d="M23.954 49.4332L24.3783 50.4466L23.4007 51.0116L22.9756 49.9982L23.954 49.4332Z" fill="#FFB489"/>
<path d="M24.3783 50.4467L24.1654 50.7529L23.1877 51.317L23.4007 51.0116L24.3783 50.4467Z" fill="#F79359"/>
<path d="M23.4007 51.0117L23.1878 51.3171L22.7627 50.3037L22.9756 49.9983L23.4007 51.0117Z" fill="#B86434"/>
<path d="M26.1774 48.1504L26.6017 49.1637L25.6241 49.7279L25.199 48.7153L26.1774 48.1504Z" fill="#FFB489"/>
<path d="M26.6017 49.1637L26.3888 49.4691L25.4111 50.0341L25.6241 49.7279L26.6017 49.1637Z" fill="#F79359"/>
<path d="M25.624 49.7281L25.411 50.0342L24.986 49.0209L25.1989 48.7155L25.624 49.7281Z" fill="#B86434"/>
<path d="M28.4006 46.8674L28.8249 47.8808L27.8473 48.445L27.4222 47.4316L28.4006 46.8674Z" fill="#EDF4ED"/>
<path d="M28.825 47.8807L28.612 48.1861L27.6344 48.7511L27.8473 48.4449L28.825 47.8807Z" fill="#BEBABA"/>
<path d="M27.8474 48.445L27.6344 48.7512L27.2094 47.7378L27.4223 47.4316L27.8474 48.445Z" fill="#D6D4D5"/>
<path d="M30.624 45.5842L31.0483 46.5968L30.0699 47.1618L29.6456 46.1484L30.624 45.5842Z" fill="#EDF4ED"/>
<path d="M31.0484 46.5969L30.8355 46.9031L29.8571 47.4673L30.07 47.1619L31.0484 46.5969Z" fill="#BEBABA"/>
<path d="M30.07 47.1619L29.857 47.4673L29.4327 46.454L29.6457 46.1486L30.07 47.1619Z" fill="#D6D4D5"/>
<path d="M23.8654 51.2659L24.2143 51.2014L23.7542 52.8435H23.3113L22.887 51.8301L23.8654 51.2659Z" fill="#B8B6B7"/>
<path d="M26.0887 49.9823L26.4392 49.9232L25.9776 51.5606H25.5347L25.1104 50.5473L26.0887 49.9823Z" fill="#B8B6B7"/>
<path d="M28.312 48.6992L28.6617 48.6362L28.2009 50.2767H27.7579L27.3336 49.2641L28.312 48.6992Z" fill="#B8B6B7"/>
<path d="M30.5354 47.416L30.8851 47.3546L30.4243 48.9936H29.9813L29.557 47.9802L30.5354 47.416Z" fill="#B8B6B7"/>
<path d="M24.5212 50.9598L24.9456 51.9732L23.9672 52.5382L23.5428 51.5248L24.5212 50.9598Z" fill="#FFB489"/>
<path d="M24.9456 51.9731L24.7327 52.2786L23.7543 52.8435L23.9672 52.5381L24.9456 51.9731Z" fill="#F79359"/>
<path d="M23.9672 52.5383L23.7543 52.8437L23.33 51.8303L23.5429 51.5249L23.9672 52.5383Z" fill="#B86434"/>
<path d="M26.7446 49.6766L27.1689 50.69L26.1905 51.2542L25.7662 50.2408L26.7446 49.6766Z" fill="#FFB489"/>
<path d="M27.1689 50.6901L26.9559 50.9955L25.9775 51.5604L26.1905 51.2543L27.1689 50.6901Z" fill="#F79359"/>
<path d="M26.1905 51.2543L25.9775 51.5605L25.5532 50.5472L25.7661 50.241L26.1905 51.2543Z" fill="#B86434"/>
<path d="M28.9679 48.3938L29.3922 49.4064L28.4138 49.9714L27.9895 48.958L28.9679 48.3938Z" fill="#EDF4ED"/>
<path d="M29.3923 49.4064L29.1793 49.7126L28.2009 50.2767L28.4139 49.9713L29.3923 49.4064Z" fill="#BEBABA"/>
<path d="M28.4139 49.9715L28.2009 50.2769L27.7766 49.2643L27.9895 48.9581L28.4139 49.9715Z" fill="#D6D4D5"/>
<path d="M31.1913 47.11L31.6156 48.1234L30.6372 48.6883L30.2129 47.6749L31.1913 47.11Z" fill="#EDF4ED"/>
<path d="M31.6156 48.1233L31.4027 48.4287L30.4243 48.9937L30.6372 48.6883L31.6156 48.1233Z" fill="#BEBABA"/>
<path d="M30.6372 48.6883L30.4243 48.9937L30 47.9803L30.2129 47.6749L30.6372 48.6883Z" fill="#D6D4D5"/>
<path d="M24.759 92.4697L24.9961 95.5051L50.7747 80.6504L51.063 78.2709V80.8665L24.759 96.0483V92.4697Z" fill="#BEBEBE"/>
<path d="M24.759 91.6241V96.0483L25.1422 92.05L50.617 77.2427L51.063 80.8665V76.4415L24.759 91.6241Z" fill="#DEDEDE"/>
<path d="M21.4494 55.7554L15.7764 35.9326L35.6482 24.4218L38.9634 33.3533L35.9131 23.6564L15.1267 35.6536L21.4494 55.7554Z" fill="#F2F1F2"/>
<path d="M33.4434 41.2588C34.0239 42.0717 33.985 43.1807 33.3548 43.7363C32.7253 44.2919 31.7438 44.0829 31.1633 43.27C30.5828 42.4572 30.6217 41.3482 31.2519 40.7926C31.8806 40.2369 32.8621 40.446 33.4434 41.2588Z" fill="#CDCDCD"/>
<path d="M32.6081 41.991C33.0542 42.615 33.0969 43.4146 32.7044 43.776C32.3112 44.1374 31.6312 43.9252 31.1859 43.3012C30.7399 42.6772 30.6971 41.8775 31.0896 41.5161C31.482 41.154 32.162 41.3669 32.6081 41.991Z" fill="#AEAEAE"/>
<path d="M33.0432 41.6801C33.4893 42.3041 33.459 43.1558 32.9756 43.5825C32.4922 44.0091 31.7392 43.8483 31.2931 43.2242C30.847 42.6002 30.8774 41.7485 31.3607 41.3218C31.8441 40.896 32.5971 41.0561 33.0432 41.6801Z" fill="#155670"/>
<path d="M33.0245 41.6537C33.4379 42.2327 33.4255 43.0114 32.9957 43.3937C32.566 43.776 31.8829 43.616 31.4695 43.037C31.0561 42.458 31.0685 41.6794 31.4982 41.297C31.9272 40.9155 32.6111 41.0748 33.0245 41.6537Z" fill="#29687C"/>
<path d="M33.0688 41.7165C33.3486 42.1081 33.3292 42.642 33.0261 42.9093C32.723 43.1767 32.2505 43.0764 31.9708 42.6847C31.691 42.2931 31.7104 41.7592 32.0135 41.4919C32.3166 41.2245 32.7891 41.3248 33.0688 41.7165Z" fill="#5C8C9B"/>
<path d="M33.0618 41.7749C33.1799 41.9404 33.1939 42.1502 33.0929 42.2435C32.9918 42.3367 32.8139 42.2792 32.6958 42.1137C32.5776 41.9482 32.5636 41.7383 32.6647 41.6451C32.7657 41.5518 32.9437 41.6093 33.0618 41.7749Z" fill="#A4BFC7"/>
<path d="M34.9945 45.0427C35.575 45.8556 35.5362 46.9645 34.9059 47.5201C34.2765 48.0758 33.295 47.8667 32.7145 47.0539C32.134 46.241 32.1728 45.132 32.8031 44.5764C33.4317 44.0215 34.4132 44.2298 34.9945 45.0427Z" fill="#CDCDCD"/>
<path d="M34.1591 45.7755C34.6052 46.3995 34.6479 47.1984 34.2555 47.5606C33.8623 47.9219 33.1823 47.7098 32.737 47.0857C32.2909 46.4617 32.2482 45.6628 32.6406 45.3007C33.0331 44.9385 33.713 45.1515 34.1591 45.7755Z" fill="#AEAEAE"/>
<path d="M34.5943 45.4647C35.0404 46.0888 35.0101 46.9405 34.5267 47.3671C34.0434 47.7938 33.2903 47.6329 32.8443 47.0089C32.3982 46.3849 32.4285 45.5331 32.9119 45.1065C33.3945 44.6798 34.1483 44.8407 34.5943 45.4647Z" fill="#155670"/>
<path d="M34.5757 45.4383C34.9891 46.0172 34.9766 46.7959 34.5469 47.1782C34.1172 47.5606 33.4341 47.4005 33.0206 46.8215C32.6072 46.2426 32.6196 45.4639 33.0494 45.0816C33.4784 44.7 34.1622 44.8593 34.5757 45.4383Z" fill="#29687C"/>
<path d="M34.62 45.5005C34.8998 45.8922 34.8803 46.4261 34.5772 46.6934C34.2742 46.9607 33.8017 46.8605 33.5219 46.4688C33.2421 46.0771 33.2616 45.5433 33.5647 45.2759C33.8677 45.0086 34.3402 45.1088 34.62 45.5005Z" fill="#5C8C9B"/>
<path d="M34.6122 45.5586C34.7303 45.7242 34.7443 45.934 34.6433 46.0272C34.5423 46.1213 34.3643 46.063 34.2462 45.8975C34.1281 45.7319 34.1141 45.5221 34.2151 45.4289C34.3169 45.3356 34.4949 45.3939 34.6122 45.5586Z" fill="#A4BFC7"/>
<path d="M37.8512 38.6276C38.4317 39.4405 38.3929 40.5495 37.7626 41.1051C37.1332 41.6607 36.1517 41.4517 35.5712 40.6388C34.9906 39.826 35.0295 38.717 35.6597 38.1614C36.2892 37.6065 37.2707 37.8148 37.8512 38.6276Z" fill="#CDCDCD"/>
<path d="M37.0158 39.3603C37.4619 39.9844 37.5046 40.7833 37.1122 41.1454C36.7189 41.5068 36.039 41.2946 35.5937 40.6706C35.1476 40.0465 35.1049 39.2469 35.4973 38.8855C35.8905 38.5234 36.5705 38.7363 37.0158 39.3603Z" fill="#AEAEAE"/>
<path d="M37.451 39.0497C37.8971 39.6737 37.8668 40.5254 37.3834 40.9521C36.9001 41.3787 36.147 41.2178 35.701 40.5938C35.2549 39.9698 35.2852 39.1181 35.7686 38.6914C36.2519 38.2648 37.0057 38.4249 37.451 39.0497Z" fill="#155670"/>
<path d="M37.4332 39.0232C37.8466 39.6022 37.8342 40.3809 37.4044 40.7632C36.9747 41.1455 36.2916 40.9855 35.8782 40.4065C35.4647 39.8276 35.4772 39.0489 35.9069 38.6665C36.3359 38.285 37.019 38.4443 37.4332 39.0232Z" fill="#29687C"/>
<path d="M37.4774 39.0854C37.7572 39.4771 37.7377 40.0109 37.4347 40.2783C37.1316 40.5456 36.6591 40.4454 36.3793 40.0537C36.0996 39.662 36.119 39.1281 36.4221 38.8608C36.7252 38.5935 37.1976 38.6945 37.4774 39.0854Z" fill="#5C8C9B"/>
<path d="M37.4696 39.1435C37.5877 39.309 37.6017 39.5188 37.5007 39.6121C37.3997 39.7053 37.2217 39.6478 37.1036 39.4823C36.9855 39.3168 36.9715 39.1069 37.0725 39.0137C37.1743 38.9204 37.3515 38.9787 37.4696 39.1435Z" fill="#A4BFC7"/>
<path d="M39.4024 42.412C39.9829 43.2249 39.944 44.3339 39.3138 44.8895C38.6843 45.4451 37.7028 45.2361 37.1223 44.4232C36.5418 43.6104 36.5806 42.5014 37.2109 41.9458C37.8404 41.3901 38.8219 41.5992 39.4024 42.412Z" fill="#CDCDCD"/>
<path d="M38.5669 43.1442C39.013 43.7682 39.0558 44.5671 38.6633 44.9292C38.2709 45.2906 37.5901 45.0784 37.1448 44.4544C36.6987 43.8303 36.656 43.0315 37.0485 42.6693C37.4409 42.3072 38.1217 42.5201 38.5669 43.1442Z" fill="#AEAEAE"/>
<path d="M39.0021 42.8332C39.4481 43.4572 39.4178 44.3089 38.9344 44.7356C38.4511 45.1622 37.698 45.0013 37.252 44.3773C36.8059 43.7533 36.8362 42.9016 37.3196 42.4749C37.803 42.0491 38.5568 42.2091 39.0021 42.8332Z" fill="#155670"/>
<path d="M38.9835 42.8076C39.3969 43.3866 39.3845 44.1653 38.9547 44.5476C38.525 44.93 37.8419 44.7699 37.4285 44.1909C37.015 43.612 37.0275 42.8333 37.4572 42.4509C37.887 42.0686 38.5701 42.2287 38.9835 42.8076Z" fill="#29687C"/>
<path d="M39.0286 42.8697C39.3083 43.2613 39.2889 43.7952 38.9858 44.0625C38.6827 44.3299 38.2102 44.2296 37.9305 43.8379C37.6507 43.4463 37.6701 42.9124 37.9732 42.6451C38.2763 42.3777 38.7488 42.478 39.0286 42.8697Z" fill="#5C8C9B"/>
<path d="M39.0208 42.9281C39.139 43.0936 39.153 43.3034 39.0519 43.3967C38.9509 43.4899 38.7729 43.4324 38.6556 43.2669C38.5375 43.1014 38.5235 42.8915 38.6245 42.7983C38.7255 42.705 38.9027 42.7625 39.0208 42.9281Z" fill="#A4BFC7"/>
<path d="M6.31955 56.4618C6.31955 56.4618 5.97218 56.8177 5.38934 56.8053C4.8065 56.7928 4.8065 56.7928 4.8065 56.7928L4.39307 57.0237L5.35592 57.5824L6.79903 56.7384L6.31955 56.4618Z" fill="#B4B0B1"/>
<path d="M9.66354 58.2531C9.66354 58.2531 8.69913 58.7978 8.13261 58.6603C7.80155 58.5794 7.25757 58.539 7.25757 58.539V59.8461L8.2212 60.4049L9.66431 59.5609L9.66354 58.2531Z" fill="#635E61"/>
<path d="M9.1832 57.9763L8.71071 57.7369L7.67014 58.3081L7.25671 58.5389L8.22034 59.0969L9.66346 58.2529L9.1832 57.9763Z" fill="#666666"/>
<path d="M10.6364 60.5541V53.9276H8.20325V60.5502C8.20247 60.7313 8.32215 60.9124 8.56228 61.0515C9.03943 61.3266 9.80956 61.3281 10.2836 61.0546C10.5222 60.917 10.6395 60.736 10.6364 60.5541Z" fill="url(#paint1_linear_62_1488)"/>
<path d="M11.1168 59.2316C11.1168 59.2316 10.1524 59.7756 9.58585 59.638C9.2548 59.5572 8.71082 59.5168 8.71082 59.5168V60.8239L9.67445 61.3826L11.1176 60.5387L11.1168 59.2316Z" fill="#635E61"/>
<path d="M10.2829 54.4382C9.80885 54.7117 9.03795 54.7102 8.56157 54.4351C8.08442 54.16 8.08209 53.7147 8.55613 53.4411C9.03018 53.1676 9.80108 53.1691 10.2775 53.4442C10.7546 53.7193 10.7569 54.1646 10.2829 54.4382Z" fill="#F0F7F7"/>
<path d="M10.1873 54.3823C9.73813 54.6419 9.00764 54.6403 8.55613 54.3792C8.10463 54.1181 8.10229 53.6969 8.55069 53.4374C8.99987 53.1778 9.73036 53.1793 10.1819 53.4405C10.6342 53.7016 10.6365 54.1236 10.1873 54.3823Z" fill="#F2F3F2"/>
<path d="M10.6372 58.9548C10.6372 58.9548 10.2898 59.3107 9.70696 59.2983C9.12412 59.2859 9.12412 59.2859 9.12412 59.2859L8.71069 59.5167L9.67432 60.0754L11.1174 59.2315L10.6372 58.9548Z" fill="#B4B0B1"/>
<defs>
<linearGradient id="paint0_linear_62_1488" x1="3.88531" y1="55.1008" x2="6.31887" y2="55.1008" gradientUnits="userSpaceOnUse">
<stop offset="0.0896" stop-color="#B8B8B8"/>
<stop offset="0.384" stop-color="#D7D8D7"/>
<stop offset="0.7048" stop-color="#EEEFEE"/>
<stop offset="0.8431" stop-color="#F2F3F2"/>
<stop offset="0.944" stop-color="#F0F1F0"/>
<stop offset="0.9803" stop-color="#EAEAE9"/>
<stop offset="0.9844" stop-color="#E9E9E8"/>
<stop offset="0.9907" stop-color="#F0F1F0"/>
</linearGradient>
<linearGradient id="paint1_linear_62_1488" x1="8.20294" y1="57.5937" x2="10.6364" y2="57.5937" gradientUnits="userSpaceOnUse">
<stop offset="0.0896" stop-color="#B8B8B8"/>
<stop offset="0.384" stop-color="#D7D8D7"/>
<stop offset="0.7048" stop-color="#EEEFEE"/>
<stop offset="0.8431" stop-color="#F2F3F2"/>
<stop offset="0.944" stop-color="#F0F1F0"/>
<stop offset="0.9803" stop-color="#EAEAE9"/>
<stop offset="0.9844" stop-color="#E9E9E8"/>
<stop offset="0.9907" stop-color="#F0F1F0"/>
</linearGradient>
</defs>
</svg>
