<svg width="119" height="100" viewBox="0 0 119 100" fill="none" xmlns="http://www.w3.org/2000/svg">
<path d="M69.9969 30.3559L40.1412 13.1258C39.1257 12.532 38.0671 12.4631 37.2495 12.9365C36.4405 13.4099 35.9757 14.3393 35.9757 15.5098V27.4125C35.9757 27.6449 35.9929 27.8772 36.0273 28.1096C36.2941 29.9428 37.5421 31.8964 39.0912 32.7915L68.9469 50.0302C69.5149 50.3572 70.1002 50.5207 70.6424 50.5207C71.0727 50.5207 71.4772 50.4174 71.83 50.2109C72.2345 49.9785 72.553 49.6343 72.7681 49.1953C72.7767 49.1867 72.7767 49.1867 72.7767 49.1867C73.0005 48.7478 73.1124 48.2314 73.1124 47.6462V35.7349C73.1133 33.7296 71.7448 31.3714 69.9969 30.3559ZM38.0679 15.5098C38.0679 15.0709 38.1884 14.8127 38.3003 14.7439C38.3347 14.7266 38.3864 14.718 38.4552 14.718C38.5929 14.718 38.8081 14.7783 39.0663 14.916C39.0835 14.9246 39.0921 14.9332 39.0921 14.9332L68.9478 32.1718C70.0494 32.8087 71.0219 34.4698 71.0219 35.7349V47.6462C71.0219 47.8183 71.0047 47.956 70.9703 48.0765C70.9703 48.0851 70.9703 48.0937 70.9616 48.1023C70.9186 48.2658 70.8498 48.3605 70.7895 48.4035C70.669 48.4724 70.3764 48.438 69.9977 48.2228L40.1421 30.9842C39.0318 30.3473 38.0679 28.6776 38.0679 27.4125V15.5098Z" fill="#CECCCD"/>
<path d="M70.9616 48.1023C70.6689 49.8064 69.4554 48.808 69.4554 48.808C69.4554 48.808 41.4502 32.8087 39.2986 31.2767C37.147 29.7448 37.3965 28.1096 37.3965 28.1096C37.3965 28.1096 37.3965 16.6975 37.3965 15.2172C37.3965 13.8488 38.8424 14.761 39.0662 14.916C38.808 14.7782 38.5928 14.718 38.4551 14.718C38.3863 14.718 38.3346 14.7266 38.3002 14.7438C38.1883 14.8127 38.0678 15.0709 38.0678 15.5098V27.4125C38.0678 28.6776 39.0318 30.3473 40.142 30.9841L69.9977 48.2228C70.3763 48.4379 70.669 48.4724 70.7894 48.4035C70.8488 48.3605 70.9177 48.2658 70.9616 48.1023Z" fill="#BDBABB"/>
<path d="M72.769 49.1952C72.5538 49.6341 72.2354 49.9784 71.8309 50.2108C71.478 50.4173 71.0735 50.5206 70.6432 50.5206C70.101 50.5206 69.5158 50.3571 68.9477 50.03L39.0921 32.7914C37.5429 31.8963 36.295 29.9427 36.0282 28.1095C36.9491 31.1562 38.9544 32.2664 38.9544 32.2664L66.908 48.5669C66.908 48.5669 69.0854 49.9956 70.5055 50.1505C71.8309 50.2968 72.6735 49.3157 72.769 49.1952Z" fill="#A09C9D"/>
<path d="M39.7617 13.0975C39.7617 13.0975 38.9312 12.6018 37.9595 12.7937C37.1195 13.1078 36.8966 13.3505 36.8966 13.3505C36.8966 13.3505 37.7572 12.9865 38.3752 13.2593C38.9931 13.533 69.8291 31.4085 69.8291 31.4085C69.8291 31.4085 71.7655 33.1031 71.8464 35.3218C71.9273 37.5406 71.8464 48.5809 71.8464 48.5809C71.8464 48.5809 71.7922 49.2264 71.4694 49.6429C72.2363 49.253 72.5857 48.9036 72.707 48.3786C72.8284 47.8545 72.7699 35.5465 72.7699 35.5465C72.7699 35.5465 72.7845 32.4766 70.0984 30.6029C68.0665 29.3937 39.7617 13.0975 39.7617 13.0975Z" fill="#EBEAEA"/>
<path d="M20.0839 74.9921C20.0839 73.2648 18.8635 71.1597 17.3583 70.2896C16.5389 69.8171 15.8048 69.8076 15.3048 70.176L13.3262 71.2535L17.2559 77.8581L19.2706 76.7504C19.2784 76.7461 19.2861 76.7418 19.2939 76.7375L19.2999 76.7341C19.7844 76.4509 20.0839 75.8485 20.0839 74.9921Z" fill="#393339"/>
<path d="M17.2457 77.865C18.3036 77.2466 18.2927 75.2596 17.2213 73.427C16.1499 71.5944 14.4239 70.6101 13.366 71.2286C12.3081 71.847 12.3191 73.834 13.3904 75.6666C14.4618 77.4992 16.1879 78.4834 17.2457 77.865Z" fill="#110910"/>
<path d="M58.5391 96.9412C58.5391 95.2139 57.3188 93.1087 55.8126 92.2386C54.9933 91.7653 54.2592 91.7567 53.7591 92.125L53.7583 92.1241L51.7797 93.2025L55.7093 99.8071L57.7241 98.6995C57.7319 98.6951 57.7396 98.6908 57.7474 98.6865L57.7534 98.6831C58.2388 98.3999 58.5391 97.7975 58.5391 96.9412Z" fill="#393339"/>
<path d="M51.0326 94.9229C51.0326 96.6502 52.253 98.7562 53.7591 99.6254C55.2644 100.495 56.4856 99.7993 56.4856 98.0711C56.4856 96.343 55.2652 94.2378 53.7591 93.3686C52.253 92.5002 51.0326 93.1956 51.0326 94.9229Z" fill="#110910"/>
<path d="M52.0748 95.5246C52.0748 96.5918 52.8288 97.8931 53.7591 98.4301C54.6895 98.9672 55.4434 98.5368 55.4434 97.4696C55.4434 96.4024 54.6895 95.1012 53.7591 94.5641C52.8288 94.0271 52.0748 94.4574 52.0748 95.5246Z" fill="#858184"/>
<path d="M13.6196 73.5755C13.6196 74.6427 14.3736 75.944 15.3039 76.481C16.2343 77.0181 16.9882 76.5886 16.9882 75.5205C16.9882 74.4525 16.2343 73.1521 15.3039 72.615C14.3736 72.078 13.6196 72.5083 13.6196 73.5755Z" fill="#858184"/>
<path d="M12.9269 67.8936L44.2973 49.7822V44.2638L12.9269 62.3751V67.8936Z" fill="#F3F3F3"/>
<path d="M35.0833 78.1345L66.4536 60.0223V54.5039L35.0833 72.6152V78.1345Z" fill="#676063"/>
<path d="M40.6602 78.8015L68.477 62.7411V55.6528L37.1066 73.765L40.6602 78.8015Z" fill="#858184"/>
<path d="M18.5046 68.5608L46.3214 52.5012V45.413L14.951 63.5252L18.5046 68.5608Z" fill="#858184"/>
<path d="M54.6852 92.2489L86.0564 74.1376V68.6183L54.6852 86.7305V92.2489Z" fill="#F3F3F3"/>
<path d="M60.263 92.9159L88.0798 76.8555L89.6385 69.6958L58.2681 87.808L60.263 92.9159Z" fill="#D6D6D6"/>
<path d="M57.6226 94.4402L12.9269 68.6356V62.3752L57.6226 88.1807V94.4402Z" fill="#797979"/>
<path d="M57.6226 94.4401L60.263 92.9159V86.6565L57.6226 88.1807V94.4401Z" fill="#D6D6D6"/>
<path d="M57.6226 88.1807L60.263 86.6566L15.5673 60.8511L12.9269 62.3753L57.6226 88.1807Z" fill="#F3F3F3"/>
<path d="M42.4158 79.0923L33.4041 73.8898V57.0625L42.4158 62.2651V79.0923Z" fill="#797979"/>
<path d="M42.4159 79.0922L45.0555 77.568V60.7407L42.4159 62.2649V79.0922Z" fill="#CECCCD"/>
<path d="M42.4158 62.2651L45.0554 60.7409L36.0436 55.5383L33.4041 57.0625L42.4158 62.2651Z" fill="#676063"/>
<path d="M58.0658 76.8762L89.4362 58.764V53.3824L58.0658 71.4946V76.8762Z" fill="#CECCCD"/>
<path d="M2.59397 16.3756L3.89096 15.6269C4.92287 13.1207 6.7655 10.7832 8.86891 9.56883L24.0524 0.803194C26.1549 -0.411171 27.9984 -0.201174 29.0303 1.11389L30.3273 0.365127C31.027 -0.0385139 31.6613 -0.0875707 32.1286 0.159433C32.1897 0.192138 33.4927 0.98651 33.5478 1.02868C33.9334 1.3256 32.9221 1.10786 32.9221 1.84457V23.3933C32.9221 25.0371 31.7611 27.0407 30.3282 27.8678L2.59397 43.8775C1.16101 44.7045 4.77826e-07 44.0427 4.77826e-07 42.398V20.8501C-0.000860164 19.2054 1.16101 17.2027 2.59397 16.3756Z" fill="url(#paint0_linear_62_2274)"/>
<path d="M3.96922 17.2199L5.2662 16.4711C6.29811 13.9649 8.14075 11.6274 10.2433 10.4131L25.4267 1.64743C27.5293 0.433067 29.3728 0.643064 30.4038 1.95812L31.7008 1.20937C33.1338 0.38229 34.2948 1.04412 34.2948 2.68881V24.2376C34.2948 25.8814 33.1338 27.885 31.7008 28.712L3.96922 44.7217C2.53625 45.5488 1.37524 44.8869 1.37524 43.2431V21.6944C1.37524 20.0505 2.53711 18.047 3.96922 17.2199Z" fill="#D6D6D6"/>
<path d="M31.7008 1.20937L30.4038 1.95812C29.3719 0.643064 27.5293 0.433067 25.4267 1.64743L10.2433 10.4131C8.13989 11.6274 6.29726 13.9649 5.26535 16.4711L3.96836 17.2199C2.5354 18.047 1.37439 20.0505 1.37439 21.6944V22.3398C1.37439 20.696 2.5354 18.6924 3.96836 17.8654L5.26535 17.1166C6.2964 14.6104 8.13989 12.2729 10.2433 11.0585L25.4267 2.29291C27.5302 1.07855 29.3728 1.28855 30.4038 2.60361L31.7008 1.85485C33.1338 1.02777 34.2948 1.68961 34.2948 3.33429V2.68881C34.2948 1.04412 33.1338 0.38229 31.7008 1.20937Z" fill="#EFEFEF"/>
<path d="M58.0658 71.4946L89.4362 53.3824L33.9945 21.3734L2.62329 39.4848L58.0658 71.4946Z" fill="#676063"/>
<path d="M35.7278 57.2114L67.099 39.0992V33.1083L3.76355 25.9348V31.9257L35.7278 57.2114Z" fill="#B28A00"/>
<path d="M35.7278 51.2205V57.2114L67.099 39.0992V33.1083L35.7278 51.2205Z" fill="#D5A600"/>
<path d="M58.5167 70.368L89.8871 52.2567V46.2657L36.0178 51.3874V57.3784L58.5167 70.368Z" fill="#B28A00"/>
<path d="M58.5167 64.3771V70.368L89.8871 52.2567V46.2657L58.5167 64.3771Z" fill="#D5A600"/>
<path d="M35.7278 51.2205L67.099 33.1083L35.1339 7.82349L3.76355 25.9348L35.7278 51.2205Z" fill="#FBC402"/>
<path d="M48.5995 18.4749L65.6307 33.1083L35.9765 50.6431L20.5452 39.249L35.7277 51.2205L67.099 33.1083L48.5995 18.4749Z" fill="#FFE99C"/>
<path d="M42.4159 18.9808L44.6828 20.7736C44.6828 20.7736 37.5447 25.2205 33.4041 27.3721C29.2636 29.5237 20.4411 33.9336 20.4411 33.9336C20.4411 33.9336 14.2015 29.4523 12.4802 28.1613C10.7589 26.8703 7.23718 23.9295 7.23718 23.9295L12.9269 20.6445L42.4159 18.9808Z" fill="#8E6F00"/>
<path d="M20.9558 32.2984C20.9558 32.2984 30.9762 28.3791 34.2949 26.422C37.1969 24.7102 45.7371 17.9911 45.7371 17.9911C45.7371 17.9911 40.581 12.5708 38.6222 11.038C36.8372 9.64033 30.9117 6.26404 30.9117 6.26404C30.9117 6.26404 20.8602 10.1791 17.8351 11.8987C14.5543 13.7628 6.13123 20.5713 6.13123 20.5713C6.13123 20.5713 10.0953 25.2834 11.6738 26.5829C13.7772 28.3154 20.9558 32.2984 20.9558 32.2984Z" fill="#C4BEC8"/>
<path d="M20.9558 32.2984C20.9558 32.2984 30.9762 26.1018 34.2949 24.1447C37.1969 22.4329 45.7371 17.9911 45.7371 17.9911C45.7371 17.9911 40.581 12.5708 38.6222 11.038C36.8372 9.64033 30.9117 6.26404 30.9117 6.26404C30.9117 6.26404 20.8602 10.1791 17.8351 11.8987C14.5543 13.7628 6.13123 20.5713 6.13123 20.5713C6.13123 20.5713 12.2203 23.1584 13.7987 24.458C15.9021 26.1905 20.9558 32.2984 20.9558 32.2984Z" fill="#F5F4F6"/>
<path d="M58.5167 64.3771L89.8871 46.2658L67.3891 33.2761L36.0178 51.3875L58.5167 64.3771Z" fill="#FBC402"/>
<path d="M2.62329 39.4846V44.8662L58.0658 76.8761V71.4945L2.62329 39.4846Z" fill="#919191"/>
<path d="M86.7837 94.3964L118.154 76.285V69.1968L86.7837 87.309V94.3964Z" fill="#D6D6D6"/>
<path d="M86.7837 87.3088L118.154 69.1966L89.4362 52.6163L58.0658 70.7277L86.7837 87.3088Z" fill="#676063"/>
<path d="M87.2347 86.9482L118.606 68.8369V62.8459L58.9875 64.649V70.6399L87.2347 86.9482Z" fill="#B28A00"/>
<path d="M87.2346 80.9573V86.9482L118.606 68.8369V62.8459L87.2346 80.9573Z" fill="#D5A600"/>
<path d="M87.2347 80.9574L118.606 62.846L90.3579 46.5377L58.9875 64.6491L87.2347 80.9574Z" fill="#FBC402"/>
<path d="M58.0658 70.7277V77.8159L86.7837 94.3962V87.3088L58.0658 70.7277Z" fill="#919191"/>
<path d="M37.4146 51.3993L7.55894 34.1693C6.54338 33.5755 5.48479 33.5066 4.66718 33.98C3.85818 34.4533 3.39343 35.3828 3.39343 36.5533V48.456C3.39343 48.6883 3.41064 48.9207 3.44507 49.1531C3.71187 50.9862 4.9598 52.9399 6.50895 53.835L36.3646 71.0736C36.9326 71.4007 37.5179 71.5642 38.0601 71.5642C38.4904 71.5642 38.8949 71.4609 39.2478 71.2544C39.6523 71.022 39.9707 70.6777 40.1859 70.2388C40.1945 70.2302 40.1945 70.2302 40.1945 70.2302C40.4182 69.7913 40.5301 69.2749 40.5301 68.6896V56.7784C40.5301 54.7739 39.1617 52.4158 37.4146 51.3993ZM5.48479 36.5541C5.48479 36.1152 5.60528 35.857 5.71717 35.7882C5.75159 35.771 5.80323 35.7624 5.87208 35.7624C6.00978 35.7624 6.22494 35.8226 6.48314 35.9603C6.50035 35.9689 6.50895 35.9775 6.50895 35.9775L36.3646 53.2162C37.4662 53.853 38.4388 55.5141 38.4388 56.7792V68.6905C38.4388 68.8626 38.4215 69.0003 38.3871 69.1208C38.3871 69.1294 38.3871 69.138 38.3785 69.1466C38.3355 69.3102 38.2666 69.4048 38.2064 69.4479C38.0859 69.5167 37.7933 69.4823 37.4146 69.2671L7.55894 52.0285C6.44871 51.3916 5.48479 49.722 5.48479 48.4568V36.5541Z" fill="#CECCCD"/>
<path d="M38.3786 69.1459C38.0859 70.8499 36.8724 69.8516 36.8724 69.8516C36.8724 69.8516 8.86716 53.8523 6.71556 52.3203C4.56395 50.7884 4.81354 49.1532 4.81354 49.1532C4.81354 49.1532 4.81354 37.7411 4.81354 36.2608C4.81354 34.8923 6.25942 35.8046 6.48318 35.9595C6.22499 35.8218 6.00983 35.7616 5.87213 35.7616C5.80328 35.7616 5.75164 35.7702 5.71721 35.7874C5.60533 35.8563 5.48484 36.1144 5.48484 36.5534V48.456C5.48484 49.7212 6.44876 51.3908 7.55899 52.0277L37.4146 69.2664C37.7933 69.4815 38.0859 69.5159 38.2064 69.4471C38.2667 69.4049 38.3355 69.3103 38.3786 69.1459Z" fill="#BDBABB"/>
<path d="M40.186 70.2398C39.9708 70.6787 39.6524 71.023 39.2479 71.2553C38.895 71.4619 38.4905 71.5652 38.0602 71.5652C37.518 71.5652 36.9328 71.4016 36.3647 71.0746L6.50907 53.8359C4.95992 52.9409 3.71199 50.9872 3.44519 49.1541C4.36608 52.2007 6.37137 53.311 6.37137 53.311L34.325 69.6115C34.325 69.6115 36.5024 71.0402 37.9225 71.1951C39.2479 71.3414 40.0913 70.3594 40.186 70.2398Z" fill="#A09C9D"/>
<path d="M7.17941 34.1418C7.17941 34.1418 6.34889 33.6461 5.37722 33.838C4.53724 34.1521 4.31433 34.3948 4.31433 34.3948C4.31433 34.3948 5.17497 34.0299 5.79291 34.3036C6.40999 34.5773 37.2459 52.4528 37.2459 52.4528C37.2459 52.4528 39.1824 54.1474 39.2633 56.3661C39.3442 58.5849 39.2633 69.6252 39.2633 69.6252C39.2633 69.6252 39.209 70.2707 38.8863 70.6872C39.6531 70.2974 40.0026 69.9479 40.1239 69.4229C40.2453 68.8988 40.1867 56.5908 40.1867 56.5908C40.1867 56.5908 40.2005 53.5209 37.5153 51.6472C35.4842 50.438 7.17941 34.1418 7.17941 34.1418Z" fill="#EBEAEA"/>
<path d="M90.3579 46.5377L117.138 62.846L87.2347 80.2095L58.9875 64.6491L87.2347 80.9574L118.606 62.846L90.3579 46.5377Z" fill="#FFE99C"/>
<path d="M67.0991 33.1083L88.4197 46.2658L58.5167 63.6292L40.3193 53.8713L58.5167 64.3771L89.8871 46.2658L67.0991 33.1083Z" fill="#FFE99C"/>
<path d="M86.7837 94.3964L87.2347 87.525L117.678 70.0583L118.154 76.285V69.1968L86.7837 87.309V94.3964Z" fill="#EFEFEF"/>
<defs>
<linearGradient id="paint0_linear_62_2274" x1="29.886" y1="-1.13454" x2="3.03256" y2="45.377" gradientUnits="userSpaceOnUse">
<stop stop-color="#E0E0E0"/>
<stop offset="0.0123" stop-color="#E4E4E4"/>
<stop offset="0.0506" stop-color="#EBEBEB"/>
<stop offset="0.1569" stop-color="#EDEDED"/>
<stop offset="0.2952" stop-color="#E8E8E8"/>
<stop offset="0.5133" stop-color="#C9C9C9"/>
<stop offset="0.9104" stop-color="#9F9F9F"/>
</linearGradient>
</defs>
</svg>
