<svg width="67" height="100" viewBox="0 0 67 100" fill="none" xmlns="http://www.w3.org/2000/svg">
<path d="M32.9563 0.346558H4.31573C2.35405 2.70058 2.74638 4.26992 2.74638 10.155C2.74638 16.04 3.13872 41.5419 6.27741 49.781C9.4161 58.02 8.63143 71.3595 7.84676 74.1058C7.06208 76.8522 5.1004 85.4836 5.1004 90.5839C5.1004 95.6843 7.45442 99.2154 11.3778 99.2154C15.3012 99.2154 22.3632 98.0383 23.1479 97.2537C23.9326 96.469 30.6023 94.8997 35.3103 97.2537C39.0767 99.1369 43.6802 99.8692 45.5111 100C50.2191 99.8692 60.1844 99.5292 62.3815 99.2154C65.1279 98.823 66.3049 97.646 66.6972 93.3303C67.0896 89.0146 63.9509 88.6223 62.3815 88.2299C60.8122 87.8376 51.3961 86.6606 50.6114 86.2682C49.8268 85.8759 42.3724 81.9525 38.0567 76.4598C33.741 70.9671 32.9563 67.0438 31.3869 61.1587C30.1315 56.4507 31.9101 18.6556 32.9563 0.346558Z" fill="#EED7B8"/>
<path d="M30.9947 39.9725C30.9947 35.5784 32.3025 11.7243 32.9563 0.346558H30.9947C30.6023 5.44693 29.6607 17.1386 29.0329 23.1021C28.2483 30.5565 29.0329 58.4124 29.0329 61.551C29.0329 64.6897 33.3486 74.8905 35.7027 78.4215C37.5859 81.2463 43.811 85.3528 46.6881 87.0529C67.8743 90.9763 66.5142 94.2191 66.6973 92.938C67.0896 90.1916 65.1279 88.7128 61.9892 88.2299C58.589 87.7068 51.5531 86.5821 50.6115 86.2682C49.4344 85.8759 42.3724 81.9525 38.449 77.2445C34.5257 72.5365 32.9563 66.2591 31.7793 61.9434C30.6023 57.6277 30.9947 45.4653 30.9947 39.9725Z" fill="#DCBB8E"/>
<path d="M2.74634 3.4853C2.74634 2.22982 3.79257 0.869722 4.31568 0.346607C5.10036 0.0850492 6.51277 -0.281132 5.88503 0.346607C5.10036 1.13128 5.10036 10.5474 5.10036 13.686C5.10036 16.8247 5.49269 17.2171 6.6697 17.6094C7.84671 18.0017 10.9854 17.6094 14.9088 18.3941C18.0475 19.0218 18.309 22.3174 18.0475 23.8868L16.8705 36.8339C17.0012 37.6186 16.9489 39.6587 15.6934 41.5419C14.1241 43.896 12.1624 43.5036 12.5547 44.6806C12.9471 45.8576 15.6934 54.8814 15.6934 56.0584C15.6934 57 15.1703 57.2354 14.9088 57.2354H9.41606L2.74634 16.4324V3.4853Z" fill="#F4E7D7"/>
<path d="M3.13869 16.8247H0C0.392336 23.8868 0.784673 25.0638 1.96168 28.9871C3.13869 32.9105 5.10037 45.4653 5.49271 47.8193C5.92539 50.4154 7.84673 54.8813 8.23907 60.3741C8.39719 62.5878 8.6314 72.9288 7.06206 76.8522C6.40816 79.2062 5.72811 83.365 5.10037 89.0146C4.3157 96.0767 7.84673 98.823 11.7701 99.2154C14.9088 99.5292 20.9246 97.7768 23.5402 96.8613C26.025 96.0767 31.6223 94.8997 34.1333 96.469C36.6442 98.0384 42.2416 99.4769 44.7264 100C50.2191 99.8693 61.7538 99.4508 63.9508 98.823C66.1479 98.1953 66.6972 94.6381 66.6972 92.938C59.6351 93.4611 44.8048 94.115 41.98 92.5456C38.449 90.584 32.9563 89.407 30.6022 88.6223C28.2482 87.8376 18.0475 89.7993 15.3011 89.407C12.5548 89.0146 10.2007 83.9142 12.5548 81.5602C14.438 79.677 15.1703 75.0213 15.3011 72.9288V62.3357C15.3011 61.0803 12.9471 51.6119 11.7701 47.0346C10.8546 45.7268 9.57301 43.1112 11.7701 43.1112C13.9672 43.1112 15.5627 39.711 16.0858 38.0109C15.6935 36.5723 15.1442 32.3612 16.0858 27.0255C17.0274 21.6897 14.1241 19.8326 12.5548 19.5711C10.7239 19.7018 6.66972 19.8065 5.10037 19.1787C3.53103 18.551 3.13869 17.3478 3.13869 16.8247Z" fill="#FBC402"/>
<path d="M1.96168 16.8247H0C0 21.1404 0.784673 24.2791 0.784673 24.2791C0.784673 24.2791 3.92336 36.4415 4.70804 43.8959C5.18287 48.4068 7.84673 54.0967 8.23907 63.1204C8.23907 68.2208 8.33138 72.9288 7.06206 77.2445C5.10037 83.9142 4.70804 91.3686 5.10037 91.761C4.70804 96.8614 9.80841 99.2154 10.2007 99.2154C10.5931 99.2154 17.2628 99.2154 15.3011 98.823C13.3394 98.4307 11.3778 96.8614 10.5931 96.469C9.80841 96.0767 9.02374 95.6843 7.84673 90.584C6.66972 85.4836 7.84673 84.6989 9.02374 79.5985C9.96535 75.5182 10.4623 66.3899 10.5931 62.3357C10.7239 60.1125 10.3577 53.7828 7.84673 46.2499C5.33578 38.7171 2.74636 23.4944 1.96168 16.8247Z" fill="#E2B000"/>
<path d="M39.2336 94.8996L47.0803 84.3066L43.157 81.5602L39.2336 77.6368L31.3869 89.7993C31.2561 91.2378 31.5438 94.4288 33.7409 95.6843C35.938 96.9398 38.3182 95.6843 39.2336 94.8996Z" fill="#5E727B"/>
<path d="M31.7792 62.3357H8.23902L7.84668 71.7518C7.84668 71.7518 34.9467 72.2304 34.5256 70.9671C34.1332 69.7901 32.3023 64.8205 31.7792 62.3357Z" fill="#5E727B"/>
<path d="M32.1715 36.8338V24.2791H13.3394C11.6393 24.2791 8.31749 25.5345 8.63136 30.5564C8.94523 35.5783 13.2086 36.8338 15.3011 36.8338H32.1715Z" fill="#5E727B"/>
<path d="M25.8942 93.3303L36.4873 74.1059L34.5256 70.9672L25.8942 71.3595L17.6551 88.23C17.132 89.5378 16.7135 92.5457 19.2245 94.115C21.7354 95.6844 24.7172 94.2458 25.8942 93.3303Z" fill="#5E727B"/>
<path d="M32.1716 36.8338V24.2791H29.8179L29.8179 34.8721C26.2865 35.2645 10.0441 34.009 10.9857 35.2645C11.9274 36.52 13.7321 36.5723 14.9091 36.8338H32.1716Z" fill="#3D525C"/>
<ellipse cx="12.2837" cy="27.327" rx="2.74636" ry="1.17701" transform="rotate(-39.5189 12.2837 27.327)" fill="#EEEEEE"/>
<ellipse cx="19.5572" cy="91.2012" rx="1.99441" ry="0.936101" transform="rotate(-108.109 19.5572 91.2012)" fill="#EEEEEE"/>
<ellipse cx="33.6812" cy="91.9859" rx="1.99441" ry="0.936101" transform="rotate(-108.109 33.6812 91.9859)" fill="#EEEEEE"/>
<rect x="9.41614" y="63.1204" width="13.3394" height="2.35402" rx="1" fill="#EEEEEE"/>
<path d="M34.5214 70.9671C34.2029 70.6532 32.5307 65.082 31.7345 62.3357H30.142L31.7345 70.1824H7.84668V71.7518C16.871 71.621 34.8399 71.281 34.5214 70.9671Z" fill="#3D525C"/>
<path d="M36.4872 74.1059L34.5255 70.9672L25.5018 71.3595L25.1095 72.9288H33.7409L34.5255 74.4982C29.9483 81.2987 20.4016 94.8997 21.9709 94.8997C23.5402 94.8997 25.2402 93.8535 25.8941 93.3303L36.4872 74.1059Z" fill="#3D525C"/>
<path d="M43.1571 81.5602L39.2337 77.6368L38.449 79.2062L43.9418 84.6989C40.5415 88.3607 34.1334 95.7628 35.7027 96.0767C37.272 96.3905 38.7106 95.4228 39.2337 94.8996L47.0805 84.3066L43.1571 81.5602Z" fill="#3D525C"/>
</svg>
