<svg width="329" height="364" viewBox="0 0 329 364" fill="none" xmlns="http://www.w3.org/2000/svg">
<path d="M243.734 116.892C290.293 181.449 275.703 271.528 211.146 318.088C196.138 328.911 179.751 336.427 162.852 340.782C173.423 336.617 183.653 331.081 193.291 324.13C255.572 279.211 269.647 192.309 224.729 130.028C179.811 67.7464 92.9092 53.6709 30.6279 98.5887C22.989 104.098 16.076 110.24 9.90742 116.889C18.7292 104.657 29.6341 93.6103 42.5378 84.304C107.095 37.7443 197.174 52.3345 243.734 116.892Z" fill="#25A09D"/>
<circle cx="128.622" cy="149.341" r="18.7036" fill="#20292E"/>
<circle cx="107.618" cy="247.463" r="10.9344" fill="#20292E"/>
<circle cx="109.634" cy="274.224" r="8.34466" fill="#20292E"/>
<circle cx="99.2744" cy="220.703" r="8.34466" fill="#20292E"/>
<circle cx="89.777" cy="197.97" r="6.90593" fill="#20292E"/>
<circle cx="79.9958" cy="181.857" r="5.17945" fill="#20292E"/>
<circle cx="90.3513" cy="314.22" r="5.17945" fill="#20292E"/>
<circle cx="81.1456" cy="330.91" r="4.02846" fill="#20292E"/>
<circle cx="70.7863" cy="168.045" r="4.02846" fill="#20292E"/>
<circle cx="65.6066" cy="153.082" r="4.02846" fill="#20292E"/>
<circle cx="64.4569" cy="138.695" r="3.45296" fill="#20292E"/>
<circle cx="65.6079" cy="125.459" r="2.87747" fill="#20292E"/>
<circle cx="69.3475" cy="113.085" r="2.58972" fill="#20292E"/>
<circle cx="75.3918" cy="103.014" r="2.30198" fill="#20292E"/>
<circle cx="100.711" cy="296.956" r="6.90593" fill="#20292E"/>
<path d="M124.02 193.079C86.3248 156.823 87.7635 123.732 86.3248 103.302C81.7208 110.495 77.9801 148.478 88.9144 169.196C115.675 209.768 130.35 232.5 132.077 247.751C136.246 284.582 128.048 293.79 119.128 309.041C111.359 322.324 85.4615 351.34 70.2109 364.001C90.0655 351.34 130.35 320.263 145.025 295.805C163.153 265.591 159.919 227.608 124.02 193.079Z" fill="#25A09D"/>
</svg>
