<svg width="262" height="307" viewBox="0 0 262 307" fill="none" xmlns="http://www.w3.org/2000/svg">
<path d="M233.826 59.8276C280.386 124.385 265.796 214.464 201.238 261.024C186.231 271.847 169.843 279.363 152.945 283.718C163.516 279.552 173.745 274.017 183.384 267.065C245.665 222.147 259.74 135.244 214.822 72.9632C169.904 10.682 83.0017 -3.39345 20.7204 41.5244C13.0816 47.0337 6.16862 53.1756 0 59.8252C8.82182 47.5929 19.7267 36.546 32.6303 27.2397C97.1878 -19.32 187.267 -4.72983 233.826 59.8276Z" fill="#25A09D"/>
<path d="M137.421 92.277C137.421 102.607 129.048 110.981 118.718 110.981C108.388 110.981 100.014 102.607 100.014 92.277C100.014 81.9473 108.388 73.5734 118.718 73.5734C129.048 73.5734 137.421 81.9473 137.421 92.277Z" fill="#20292E"/>
<path d="M108.647 190.399C108.647 196.438 103.751 201.333 97.7124 201.333C91.6735 201.333 86.778 196.438 86.778 190.399C86.778 184.36 91.6735 179.464 97.7124 179.464C103.751 179.464 108.647 184.36 108.647 190.399Z" fill="#20292E"/>
<path d="M108.071 217.159C108.071 221.768 104.335 225.504 99.7266 225.504C95.118 225.504 91.382 221.768 91.382 217.159C91.382 212.551 95.118 208.815 99.7266 208.815C104.335 208.815 108.071 212.551 108.071 217.159Z" fill="#20292E"/>
<path d="M97.7124 163.638C97.7124 168.247 93.9764 171.983 89.3677 171.983C84.7591 171.983 81.0231 168.247 81.0231 163.638C81.0231 159.03 84.7591 155.294 89.3677 155.294C93.9764 155.294 97.7124 159.03 97.7124 163.638Z" fill="#20292E"/>
<path d="M86.778 140.906C86.778 144.72 83.6861 147.812 79.8721 147.812C76.058 147.812 72.9662 144.72 72.9662 140.906C72.9662 137.092 76.058 134 79.8721 134C83.6861 134 86.778 137.092 86.778 140.906Z" fill="#20292E"/>
<path d="M75.2681 124.792C75.2681 127.653 72.9492 129.972 70.0887 129.972C67.2282 129.972 64.9092 127.653 64.9092 124.792C64.9092 121.932 67.2282 119.613 70.0887 119.613C72.9492 119.613 75.2681 121.932 75.2681 124.792Z" fill="#20292E"/>
<path d="M85.627 257.156C85.627 260.017 83.3081 262.335 80.4476 262.335C77.587 262.335 75.2681 260.017 75.2681 257.156C75.2681 254.295 77.587 251.977 80.4476 251.977C83.3081 251.977 85.627 254.295 85.627 257.156Z" fill="#20292E"/>
<path d="M75.2681 273.845C75.2681 276.07 73.4645 277.874 71.2397 277.874C69.0148 277.874 67.2112 276.07 67.2112 273.845C67.2112 271.621 69.0148 269.817 71.2397 269.817C73.4645 269.817 75.2681 271.621 75.2681 273.845Z" fill="#20292E"/>
<path d="M64.9092 110.981C64.9092 113.205 63.1056 115.009 60.8808 115.009C58.6559 115.009 56.8523 113.205 56.8523 110.981C56.8523 108.756 58.6559 106.952 60.8808 106.952C63.1056 106.952 64.9092 108.756 64.9092 110.981Z" fill="#20292E"/>
<path d="M59.7298 96.0177C59.7298 98.2425 57.9262 100.046 55.7013 100.046C53.4765 100.046 51.6729 98.2425 51.6729 96.0177C51.6729 93.7928 53.4765 91.9892 55.7013 91.9892C57.9262 91.9892 59.7298 93.7928 59.7298 96.0177Z" fill="#20292E"/>
<path d="M58.0033 81.6303C58.0033 83.5373 56.4574 85.0833 54.5503 85.0833C52.6433 85.0833 51.0974 83.5373 51.0974 81.6303C51.0974 79.7233 52.6433 78.1773 54.5503 78.1773C56.4574 78.1773 58.0033 79.7233 58.0033 81.6303Z" fill="#20292E"/>
<path d="M58.5788 68.394C58.5788 69.9831 57.2905 71.2714 55.7013 71.2714C54.1121 71.2714 52.8239 69.9831 52.8239 68.394C52.8239 66.8048 54.1121 65.5165 55.7013 65.5165C57.2905 65.5165 58.5788 66.8048 58.5788 68.394Z" fill="#20292E"/>
<path d="M62.0318 56.0208C62.0318 57.4511 60.8723 58.6106 59.442 58.6106C58.0118 58.6106 56.8523 57.4511 56.8523 56.0208C56.8523 54.5906 58.0118 53.4311 59.442 53.4311C60.8723 53.4311 62.0318 54.5906 62.0318 56.0208Z" fill="#20292E"/>
<path d="M67.7867 45.9497C67.7867 47.221 66.7561 48.2517 65.4847 48.2517C64.2134 48.2517 63.1828 47.221 63.1828 45.9497C63.1828 44.6783 64.2134 43.6477 65.4847 43.6477C66.7561 43.6477 67.7867 44.6783 67.7867 45.9497Z" fill="#20292E"/>
<path d="M97.7124 239.891C97.7124 243.705 94.6205 246.797 90.8065 246.797C86.9924 246.797 83.9005 243.705 83.9005 239.891C83.9005 236.077 86.9924 232.985 90.8065 232.985C94.6205 232.985 97.7124 236.077 97.7124 239.891Z" fill="#20292E"/>
<path d="M114.114 136.015C76.4191 99.7584 77.8578 66.6675 76.4191 46.2374C71.8152 53.4311 68.0745 91.4137 79.0087 112.132C105.769 152.704 120.444 175.436 122.171 190.686C126.341 227.518 118.142 236.726 109.222 251.977C101.453 265.259 75.5559 294.275 60.3053 306.936C80.1598 294.275 120.444 263.199 135.12 238.74C153.248 208.527 150.014 170.544 114.114 136.015Z" fill="#25A09D"/>
</svg>
